<svg xmlns="http://www.w3.org/2000/svg" viewBox="20.9679 5 334.2 232.1">
  <path
    d="M310.1,89c-1.7-12.6-8.7-23.4-21.4-33.3l-7.3-4.9l-4.9,7.3c-6.2,9.4-9.4,22.5-8.4,35c0.5,4.4,1.9,12.3,6.4,19.2c-4.5,2.4-13.4,5.8-25.3,5.6h-227l-0.4,2.6c-2.1,12.6-2.1,51.8,23.4,82c19.4,22.9,48.4,34.6,86.4,34.6c82.2,0,143-37.8,171.5-106.6c11.2,0.2,35.3,0.1,47.7-23.6c0.3-0.5,1.1-2,3.2-6.4l1.2-2.5l-7-4.7C340.7,88.3,323.4,86.5,310.1,89L310.1,89z M203.8,5h-34.5v31.4h34.5V5z M203.8,42.7h-34.5V74h34.5V42.7z M163,42.7h-34.5V74H163V42.7z M122.2,42.7H87.7V74h34.5V42.7z M81.4,80.3H46.9v31.4h34.5V80.3z M122.2,80.3H87.7v31.4h34.5V80.3z M163,80.3h-34.5v31.4H163V80.3z M203.8,80.3h-34.5v31.4h34.5V80.3z M244.6,80.3h-34.5v31.4h34.5V80.3z"
    fill="currentColor"
  />
</svg>
