<svg xmlns="http://www.w3.org/2000/svg" viewBox="88.4485 11.7857 18.48 20.96">
  <path d="M 97.6894 32.7407 C 97.4024 32.7407 97.1345 32.6637 96.8858 32.5289 L 94.3412 31.0081 C 93.9586 30.7963 94.1499 30.7193 94.2647 30.6808 C 94.7813 30.5075 94.8769 30.469 95.4126 30.161 C 95.47 30.1225 95.5466 30.1418 95.604 30.1803 L 97.5555 31.3546 C 97.632 31.3931 97.7276 31.3931 97.785 31.3546 L 105.419 26.9075 C 105.495 26.869 105.534 26.792 105.534 26.6958 V 17.8209 C 105.534 17.7247 105.495 17.6477 105.419 17.6092 L 97.785 13.1814 C 97.7085 13.1429 97.6128 13.1429 97.5555 13.1814 L 89.9217 17.6092 C 89.8451 17.6477 89.8069 17.7439 89.8069 17.8209 V 26.6958 C 89.8069 26.7728 89.8451 26.869 89.9217 26.9075 L 92.0071 28.1204 C 93.1359 28.6979 93.8438 28.0241 93.8438 27.3503 V 18.591 C 93.8438 18.4755 93.9394 18.36 94.0734 18.36 H 95.0491 C 95.1639 18.36 95.2787 18.4562 95.2787 18.591 V 27.3503 C 95.2787 28.8712 94.456 29.7567 93.0211 29.7567 C 92.5811 29.7567 92.2367 29.7567 91.2609 29.2755 L 89.252 28.1204 C 88.7546 27.8316 88.4485 27.2926 88.4485 26.715 V 17.8402 C 88.4485 17.2626 88.7546 16.7236 89.252 16.4348 L 96.8858 11.9878 C 97.3641 11.7183 98.0146 11.7183 98.4929 11.9878 L 106.127 16.4348 C 106.624 16.7236 106.93 17.2626 106.93 17.8402 V 26.715 C 106.93 27.2926 106.624 27.8316 106.127 28.1204 L 98.4929 32.5674 C 98.2633 32.6637 97.9764 32.7407 97.6894 32.7407 Z
M100.062 26.6379C96.7134 26.6379 96.0247 25.0978 96.0247 23.7887C96.0247 23.6732 96.1203 23.5577 96.2542 23.5577H97.2491C97.3639 23.5577 97.4596 23.6347 97.4596 23.7502C97.6126 24.7705 98.0527 25.2711 100.081 25.2711C101.688 25.2711 102.377 24.9053 102.377 24.039C102.377 23.5385 102.185 23.1727 99.6789 22.9224C97.5935 22.7106 96.2925 22.2486 96.2925 20.5737C96.2925 19.0144 97.5935 18.0903 99.7746 18.0903C102.224 18.0903 103.429 18.9374 103.582 20.7855C103.582 20.8433 103.563 20.901 103.525 20.9588C103.486 20.9973 103.429 21.0358 103.371 21.0358H102.357C102.262 21.0358 102.166 20.9588 102.147 20.8625C101.917 19.8037 101.324 19.4572 99.7555 19.4572C97.9953 19.4572 97.7848 20.0732 97.7848 20.5352C97.7848 21.0935 98.0335 21.2668 100.406 21.5748C102.759 21.8828 103.869 22.3256 103.869 23.9812C103.869 25.6753 102.472 26.6379 100.062 26.6379Z" fill="#5FA04E"/>
</svg>