<svg viewBox="0 0 36 38" xmlns="http://www.w3.org/2000/svg">
  <path
    d="m25.03 27.13 6.5 10.89h-2.07l-6.21-10.4v-.25a12.7 12.7 0 0 1-5.63-.46l-2.77 4.85 2.43 6.26h-1.9l-2.5-6.4 3.97-6.95.74.34c.03 0 2.88 1.26 6.34.42l1.1-.26v1.96z"
    fill="currentColor"
  />
  <path
    d="M9.04 21.94c-.23.77-.3 1.53-.18 2.12.19.96.53 1.9.53 1.91a4.28 4.28 0 0 1-.88 4.6l2.46 7.45H9.09l-2.65-8.05.52-.38c.25-.18 1.42-1.16.76-3.02-.02-.04-.39-1.07-.6-2.16-.23-1.13 0-2.26.23-3.02l.12-.33A5.67 5.67 0 0 0 3 24.64a5.6 5.6 0 0 0 .07 4.16l.04.1c.52 1.22.4 2.04.21 2.52a2.575 2.575 0 0 1-2.38 1.63c-.31 0-.62-.06-.92-.18l.66-1.64c.38.15.82-.06.99-.47.03-.09.12-.42-.2-1.14l-.05-.16a7.36 7.36 0 0 1-.08-5.45 7.46 7.46 0 0 1 7.2-4.78c1.7-1.64 4.43-1.59 4.73-1.58l2.62.02c.56-1.06 1.58-5.2 2.28-8.75.44-2.46 2.38-4.05 5.09-4.18l1.82-1.81 2.36 2.06-1.12 1.37-1.2-.96L24 6.53l-.47-.02c-1.99.03-3.3 1.03-3.6 2.74l-2.46 10.2-4.27-.02s-3.42-.09-4.16 2.51zm21.83-14.2a2.29 2.29 0 0 1 1.86 3.45 2.3 2.3 0 0 1-3.12.8l-2.33.2 1.36 5.8c.9.96 1.41 2.25 1.43 3.6h5.95l-2.1 7.15a5.02 5.02 0 0 1-2.75 3.01l-.92-1.54c.1-.03 1.48-.5 1.96-2l1.43-4.86H28.1l.13-1a3.61 3.61 0 0 0-1.01-3.28l-.2-.18-1.93-8.27 5.05-.47.3.25c.12.11.28.15.45.1a.5.5 0 0 0-.12-1h-.09l-.33.04-2.88-2.28 5.99-7.27.42.35-3.84 6.6.83.8z"
    fill="currentColor"
  />
</svg>
