<svg xmlns="http://www.w3.org/2000/svg" viewBox="0 0 54 54">
  <path d="M54 0H0v54h54V0z" fill="none" />
  <path
    d="M8.817 42.557c.029-.445.235-.816.632-1.128a2.22 2.22 0 011.411-.475c.514 0 .941.163 1.293.475.353.312.529.698.529 1.128H8.817zm-1.79.865c0 1.161.352 2.102 1.071 2.806.719.689 1.674 1.042 2.835 1.042 1.102 0 2.013-.322 2.732-.821v-1.734c-.616.573-1.497 1.014-2.658 1.014-1.308 0-2.175-.75-2.234-1.926h5.67c.015-.191.029-.411.029-.631 0-1.046-.338-1.937-1.012-2.644-.66-.719-1.527-1.071-2.6-1.071-1.117 0-2.043.352-2.762 1.071-.719.707-1.071 1.657-1.071 2.82v.073zm8.079 3.026c.778.528 1.673.792 2.716.792 1.014 0 1.763-.22 2.247-.66.484-.455.734-.983.734-1.615 0-.72-.235-1.234-.822-1.631a5.788 5.788 0 00-.763-.456c-.22-.103-.544-.25-.97-.411a12.87 12.87 0 00-.647-.235c-.162-.073-.191-.103-.309-.162-.191-.117-.294-.264-.294-.47 0-.426.353-.632 1.073-.632.691 0 1.337.191 1.924.558v-1.6c-.528-.337-1.189-.499-1.998-.499-.765 0-1.396.191-1.909.572-.499.381-.748.91-.748 1.571 0 .926.528 1.631 1.57 2.087.338.132.955.382 1.249.514.162.059.309.132.47.22.338.176.47.367.47.602 0 .456-.47.705-1.25.705-1.102 0-2.026-.323-2.746-.985v1.733zm6.331 0c.778.528 1.673.792 2.716.792 1.014 0 1.763-.22 2.247-.66.484-.455.734-.983.734-1.615 0-.72-.235-1.234-.822-1.631a5.788 5.788 0 00-.763-.456c-.22-.103-.544-.25-.97-.411a12.87 12.87 0 00-.647-.235c-.162-.073-.191-.103-.309-.162-.191-.117-.294-.264-.294-.47 0-.426.353-.632 1.073-.632.691 0 1.337.191 1.924.558v-1.6c-.528-.337-1.189-.499-1.998-.499-.765 0-1.396.191-1.909.572-.499.381-.748.91-.748 1.571 0 .926.528 1.631 1.57 2.087.338.132.955.382 1.249.514.162.059.309.132.47.22.338.176.47.367.47.602 0 .456-.47.705-1.25.705-1.102 0-2.026-.323-2.746-.985v1.733zm8.265-6.802h-1.761v7.403h1.761v-7.403zm-.88-.867c.572 0 1.042-.455 1.042-1.042s-.47-1.042-1.042-1.042c-.587 0-1.057.455-1.057 1.042s.47 1.042 1.057 1.042m3.775-1.966h-1.761v10.236h1.761V36.813zm5.026 8.857c-.661 0-1.205-.22-1.646-.661-.426-.456-.647-.999-.647-1.66s.22-1.205.647-1.646c.441-.456.985-.676 1.646-.676.647 0 1.19.22 1.631.676.441.441.661.985.661 1.646s-.22 1.205-.661 1.66c-.441.441-.984.661-1.631.661m-2.865.469c.778.748 1.733 1.13 2.865 1.13s2.087-.381 2.865-1.13c.778-.749 1.174-1.689 1.174-2.791s-.396-2.043-1.174-2.791c-.778-.748-1.733-1.13-2.865-1.13s-2.087.381-2.865 1.13c-.778.749-1.174 1.689-1.174 2.791s.396 2.043 1.174 2.791m9.739.909v-3.892c0-1.219.778-1.983 1.998-1.983.264 0 .514.029.734.073v-1.702a2.768 2.768 0 00-.529-.044c-1.043 0-1.851.47-2.203 1.247v-1.1h-1.746v7.401h1.746zm-9.086-27.427l-.003.127c-.435 4.548-4.142 7.46-8.214 7.46-4.634 0-8.335-3.761-8.335-8.335 0-4.654 3.779-8.336 8.335-8.336a8.28 8.28 0 015.894 2.441 15.116 15.116 0 011.044 1.164l-5.947 5.895a1.571 1.571 0 01-2.221-2.221l3.623-3.557a5.166 5.166 0 00-2.392-.581 5.195 5.195 0 000 10.389c2.338 0 4.613-1.634 5.047-4.433v-.011l.039-.271a1.572 1.572 0 011.774-1.337 1.57 1.57 0 011.356 1.606m11.804-.721C43.172 11.71 35.688 6.881 27.121 6.881S11.07 11.712 7.027 18.902c4.043 7.19 11.527 12.018 20.094 12.018s16.051-4.828 20.094-12.018"
    fill="#000"
  />
</svg>
