<svg
  viewBox="0 0 105 119"
  version="1.1"
  xmlns="http://www.w3.org/2000/svg"
  xmlns:xlink="http://www.w3.org/1999/xlink"
>
  <title>Group 63</title>
  <g
    id="Symbols"
    stroke="none"
    stroke-width="1"
    fill="none"
    fill-rule="evenodd"
  >
    <g id="Group-63" transform="translate(0.000000, 0.000000)">
      <polygon
        id="Fill-1"
        fill="#95D1D7"
        points="51.116 0 0.042 29.167 0.161 88.545 51.165 118.688 102.24 89.521 102.252 30.243"
      ></polygon>
      <polygon
        id="Fill-2"
        fill="#75C5C3"
        points="0.122 88.4934 51.396 118.6734 51.291 59.2724 -1.32671651e-14 29.0754"
      ></polygon>
      <polygon
        id="Fill-3"
        fill="#31B5B2"
        points="0.122 88.4925 0.122 88.4935 51.396 118.6735 51.291 59.2725"
      ></polygon>
      <polygon
        id="Fill-4"
        fill="#223234"
        points="81.7572 41.8522 81.7482 80.3582 51.2312 97.8702 18.1002 78.2902 18.0232 39.7192 48.2772 22.2072"
      ></polygon>
      <polygon
        id="Fill-5"
        fill="#E42E2C"
        points="18.0779 78.3116 17.9979 39.7686 51.2699 59.3566 51.3379 97.8886"
      ></polygon>
      <!-- <g id="Group-62" transform="translate(134.238800, 17.166900)">
                <path d="M1.5305,83.8947 C0.8555,83.2127 0.5175,82.2977 0.5175,81.1517 L0.5175,73.0727 C0.5175,71.9397 0.8555,71.0327 1.5305,70.3507 C2.2055,69.6677 3.1015,69.3277 4.2195,69.3277 C5.3515,69.3277 6.2555,69.6647 6.9305,70.3397 C7.6055,71.0147 7.9435,71.9257 7.9435,73.0727 L7.9435,73.4427 C7.9435,73.5877 7.8705,73.6597 7.7255,73.6597 L6.5935,73.7257 C6.4475,73.7257 6.3755,73.6537 6.3755,73.5077 L6.3755,72.9637 C6.3755,72.2817 6.1795,71.7297 5.7875,71.3087 C5.3955,70.8877 4.8725,70.6777 4.2195,70.6777 C3.5805,70.6777 3.0615,70.8877 2.6625,71.3087 C2.2635,71.7297 2.0645,72.2817 2.0645,72.9637 L2.0645,81.2817 C2.0645,81.9637 2.2635,82.5157 2.6625,82.9367 C3.0615,83.3577 3.5805,83.5687 4.2195,83.5687 C4.8725,83.5687 5.3955,83.3577 5.7875,82.9367 C6.1795,82.5157 6.3755,81.9637 6.3755,81.2817 L6.3755,80.7367 C6.3755,80.5917 6.4475,80.5187 6.5935,80.5187 L7.7255,80.5847 C7.8705,80.5847 7.9435,80.6577 7.9435,80.8027 L7.9435,81.1517 C7.9435,82.2977 7.6015,83.2127 6.9195,83.8947 C6.2375,84.5767 5.3375,84.9177 4.2195,84.9177 C3.1015,84.9177 2.2055,84.5767 1.5305,83.8947" id="Fill-6" fill="#31B5B2"></path>
                <path d="M12.1887,80.4975 L15.6077,80.4975 C15.6507,80.4975 15.6727,80.4685 15.6727,80.4105 L13.9527,72.0265 C13.9377,71.9845 13.9237,71.9625 13.9097,71.9625 C13.8947,71.9625 13.8797,71.9845 13.8657,72.0265 L12.1237,80.4105 C12.1237,80.4685 12.1457,80.4975 12.1887,80.4975 M16.5227,84.5475 L15.9777,81.8485 C15.9777,81.8195 15.9667,81.7965 15.9447,81.7825 C15.9227,81.7675 15.8977,81.7605 15.8687,81.7605 L11.9277,81.7605 C11.8987,81.7605 11.8727,81.7675 11.8517,81.7825 C11.8297,81.7965 11.8187,81.8195 11.8187,81.8485 L11.2527,84.5475 C11.2377,84.6785 11.1577,84.7445 11.0127,84.7445 L9.9027,84.7445 C9.8297,84.7445 9.7757,84.7215 9.7387,84.6785 C9.7027,84.6345 9.6917,84.5765 9.7067,84.5045 L12.9947,69.6975 C13.0237,69.5675 13.1037,69.5015 13.2337,69.5015 L14.5407,69.5015 C14.6857,69.5015 14.7657,69.5675 14.7797,69.6975 L18.0897,84.5045 L18.0897,84.5475 C18.0897,84.6785 18.0247,84.7445 17.8937,84.7445 L16.7617,84.7445 C16.6307,84.7445 16.5517,84.6785 16.5227,84.5475" id="Fill-8" fill="#31B5B2"></path>
                <path d="M26.016,69.7195 L26.016,70.6335 C26.016,70.7795 25.943,70.8515 25.798,70.8515 L22.924,70.8515 C22.866,70.8515 22.837,70.8805 22.837,70.9385 L22.837,84.5265 C22.837,84.6705 22.764,84.7435 22.619,84.7435 L21.509,84.7435 C21.363,84.7435 21.291,84.6705 21.291,84.5265 L21.291,70.9385 C21.291,70.8805 21.262,70.8515 21.204,70.8515 L18.504,70.8515 C18.358,70.8515 18.286,70.7795 18.286,70.6335 L18.286,69.7195 C18.286,69.5745 18.358,69.5015 18.504,69.5015 L25.798,69.5015 C25.943,69.5015 26.016,69.5745 26.016,69.7195" id="Fill-10" fill="#31B5B2"></path>
                <path d="M29.2597,80.4975 L32.6787,80.4975 C32.7217,80.4975 32.7437,80.4685 32.7437,80.4105 L31.0237,72.0265 C31.0087,71.9845 30.9947,71.9625 30.9807,71.9625 C30.9657,71.9625 30.9507,71.9845 30.9367,72.0265 L29.1947,80.4105 C29.1947,80.4685 29.2167,80.4975 29.2597,80.4975 M33.5937,84.5475 L33.0487,81.8485 C33.0487,81.8195 33.0377,81.7965 33.0157,81.7825 C32.9937,81.7675 32.9687,81.7605 32.9397,81.7605 L28.9987,81.7605 C28.9697,81.7605 28.9437,81.7675 28.9227,81.7825 C28.9007,81.7965 28.8897,81.8195 28.8897,81.8485 L28.3237,84.5475 C28.3087,84.6785 28.2287,84.7445 28.0837,84.7445 L26.9737,84.7445 C26.9007,84.7445 26.8467,84.7215 26.8097,84.6785 C26.7737,84.6345 26.7627,84.5765 26.7777,84.5045 L30.0657,69.6975 C30.0947,69.5675 30.1747,69.5015 30.3047,69.5015 L31.6117,69.5015 C31.7567,69.5015 31.8367,69.5675 31.8507,69.6975 L35.1607,84.5045 L35.1607,84.5475 C35.1607,84.6785 35.0957,84.7445 34.9647,84.7445 L33.8327,84.7445 C33.7017,84.7445 33.6227,84.6785 33.5937,84.5475" id="Fill-12" fill="#31B5B2"></path>
                <path d="M37.4903,84.526 L37.4903,69.719 C37.4903,69.575 37.5623,69.502 37.7083,69.502 L38.8183,69.502 C38.9633,69.502 39.0363,69.575 39.0363,69.719 L39.0363,83.306 C39.0363,83.364 39.0653,83.393 39.1233,83.393 L44.1093,83.393 C44.2543,83.393 44.3273,83.466 44.3273,83.611 L44.3273,84.526 C44.3273,84.671 44.2543,84.744 44.1093,84.744 L37.7083,84.744 C37.5623,84.744 37.4903,84.671 37.4903,84.526" id="Fill-14" fill="#31B5B2"></path>
                <path d="M47.8339,84.5046 L47.8339,77.9936 C47.8339,77.9356 47.8259,77.8996 47.8119,77.8856 L44.7859,69.7626 L44.7639,69.6756 C44.7639,69.5596 44.8289,69.5016 44.9599,69.5016 L46.1349,69.5016 C46.2659,69.5016 46.3529,69.5596 46.3969,69.6756 L48.5309,76.0556 C48.5449,76.0846 48.5669,76.0996 48.5959,76.0996 C48.6249,76.0996 48.6469,76.0846 48.6609,76.0556 L50.7949,69.6756 C50.8389,69.5596 50.9259,69.5016 51.0569,69.5016 L52.2319,69.5016 C52.3049,69.5016 52.3589,69.5276 52.3959,69.5776 C52.4319,69.6286 52.4349,69.6906 52.4069,69.7626 L49.4019,77.8856 C49.3869,77.8996 49.3799,77.9356 49.3799,77.9936 L49.3799,84.5046 C49.3799,84.6496 49.3069,84.7216 49.1619,84.7216 L48.0519,84.7216 C47.9059,84.7216 47.8339,84.6496 47.8339,84.5046" id="Fill-16" fill="#31B5B2"></path>
                <path d="M55.0847,83.8507 C54.4167,83.1397 54.0837,82.2107 54.0837,81.0637 L54.0837,80.5417 C54.0837,80.3967 54.1557,80.3237 54.3007,80.3237 L55.3897,80.3237 C55.5347,80.3237 55.6077,80.3967 55.6077,80.5417 L55.6077,80.9987 C55.6077,81.7677 55.8037,82.3887 56.1957,82.8607 C56.5877,83.3317 57.0887,83.5687 57.6977,83.5687 C58.3077,83.5687 58.8157,83.3427 59.2227,82.8927 C59.6277,82.4427 59.8317,81.8487 59.8317,81.1077 C59.8317,80.6147 59.7337,80.1897 59.5377,79.8337 C59.3417,79.4787 59.0877,79.1657 58.7757,78.8977 C58.4627,78.6297 57.9447,78.2187 57.2187,77.6667 C56.4927,77.1307 55.9197,76.6687 55.4987,76.2847 C55.0767,75.8997 54.7327,75.4397 54.4637,74.9017 C54.1957,74.3647 54.0617,73.7327 54.0617,73.0077 C54.0617,71.8747 54.3877,70.9787 55.0417,70.3177 C55.6947,69.6577 56.5437,69.3277 57.5887,69.3277 C58.6917,69.3277 59.5737,69.6867 60.2347,70.4047 C60.8947,71.1237 61.2257,72.0787 61.2257,73.2677 L61.2257,73.8127 C61.2257,73.9587 61.1527,74.0307 61.0077,74.0307 L59.9187,74.0307 C59.7737,74.0307 59.7007,73.9587 59.7007,73.8127 L59.7007,73.2467 C59.7007,72.4777 59.5087,71.8577 59.1237,71.3847 C58.7387,70.9137 58.2277,70.6777 57.5887,70.6777 C57.0087,70.6777 56.5297,70.8847 56.1517,71.2977 C55.7737,71.7117 55.5857,72.2967 55.5857,73.0507 C55.5857,73.5007 55.6687,73.8967 55.8367,74.2377 C56.0027,74.5787 56.2537,74.9017 56.5877,75.2067 C56.9217,75.5107 57.4147,75.9107 58.0677,76.4047 C58.9387,77.0437 59.5887,77.5617 60.0167,77.9617 C60.4447,78.3607 60.7757,78.7957 61.0077,79.2667 C61.2397,79.7397 61.3557,80.3097 61.3557,80.9767 C61.3557,82.1667 61.0147,83.1217 60.3327,83.8397 C59.6497,84.5587 58.7717,84.9177 57.6977,84.9177 C56.6237,84.9177 55.7527,84.5627 55.0847,83.8507" id="Fill-18" fill="#31B5B2"></path>
                <path d="M70.3491,70.8512 L65.2971,70.8512 C65.2391,70.8512 65.2101,70.8802 65.2101,70.9382 L65.2101,76.3392 C65.2101,76.3972 65.2391,76.4262 65.2971,76.4262 L68.4761,76.4262 C68.6211,76.4262 68.6941,76.4992 68.6941,76.6442 L68.6941,77.5802 C68.6941,77.7252 68.6211,77.7972 68.4761,77.7972 L65.2971,77.7972 C65.2391,77.7972 65.2101,77.8272 65.2101,77.8852 L65.2101,83.3062 C65.2101,83.3642 65.2391,83.3932 65.2971,83.3932 L70.3491,83.3932 C70.4941,83.3932 70.5671,83.4662 70.5671,83.6112 L70.5671,84.5262 C70.5671,84.6712 70.4941,84.7442 70.3491,84.7442 L63.8821,84.7442 C63.7371,84.7442 63.6641,84.6712 63.6641,84.5262 L63.6641,69.7192 C63.6641,69.5742 63.7371,69.5012 63.8821,69.5012 L70.3491,69.5012 C70.4941,69.5012 70.5671,69.5742 70.5671,69.7192 L70.5671,70.6332 C70.5671,70.7792 70.4941,70.8512 70.3491,70.8512" id="Fill-20" fill="#31B5B2"></path>
                <path d="M73.8983,83.7637 C73.2163,82.9947 72.8753,81.9777 72.8753,80.7157 L72.8753,69.7197 C72.8753,69.5747 72.9473,69.5017 73.0933,69.5017 L74.2033,69.5017 C74.3483,69.5017 74.4213,69.5747 74.4213,69.7197 L74.4213,80.8897 C74.4213,81.6887 74.6203,82.3347 75.0203,82.8277 C75.4183,83.3217 75.9453,83.5687 76.5983,83.5687 C77.2663,83.5687 77.8033,83.3217 78.2093,82.8277 C78.6153,82.3347 78.8193,81.6887 78.8193,80.8897 L78.8193,69.7197 C78.8193,69.5747 78.8923,69.5017 79.0383,69.5017 L80.1483,69.5017 C80.2923,69.5017 80.3653,69.5747 80.3653,69.7197 L80.3653,80.7157 C80.3653,81.9777 80.0193,82.9947 79.3303,83.7637 C78.6413,84.5337 77.7313,84.9177 76.5983,84.9177 C75.4803,84.9177 74.5803,84.5337 73.8983,83.7637" id="Fill-22" fill="#31B5B2"></path>
                <path d="M84.9157,70.9167 L84.9157,76.4047 C84.9157,76.4627 84.9447,76.4917 85.0027,76.4917 L86.9617,76.4917 C87.6297,76.4917 88.1667,76.2337 88.5737,75.7187 C88.9797,75.2027 89.1837,74.5247 89.1837,73.6827 C89.1837,72.8107 88.9797,72.1177 88.5737,71.6027 C88.1667,71.0877 87.6297,70.8297 86.9617,70.8297 L85.0027,70.8297 C84.9447,70.8297 84.9157,70.8587 84.9157,70.9167 M89.2047,84.5697 L86.9617,77.7967 C86.9487,77.7537 86.9197,77.7327 86.8757,77.7327 L85.0027,77.7327 C84.9447,77.7327 84.9157,77.7617 84.9157,77.8197 L84.9157,84.5257 C84.9157,84.6707 84.8427,84.7437 84.6977,84.7437 L83.5877,84.7437 C83.4427,84.7437 83.3697,84.6707 83.3697,84.5257 L83.3697,69.6967 C83.3697,69.5517 83.4427,69.4797 83.5877,69.4797 L87.1797,69.4797 C88.2397,69.4797 89.0967,69.8647 89.7497,70.6337 C90.4037,71.4027 90.7297,72.4127 90.7297,73.6597 C90.7297,74.6187 90.5257,75.4387 90.1197,76.1207 C89.7127,76.8037 89.1627,77.2757 88.4657,77.5357 C88.4067,77.5507 88.3847,77.5877 88.3997,77.6457 L90.7727,84.5047 L90.7957,84.5917 C90.7957,84.6937 90.7297,84.7437 90.5987,84.7437 L89.4657,84.7437 C89.3357,84.7437 89.2497,84.6857 89.2047,84.5697" id="Fill-24" fill="#31B5B2"></path>
                <path d="M99.0039,83.3933 L100.9209,83.3723 C101.5589,83.3723 102.0709,83.1253 102.4549,82.6323 C102.8399,82.1383 103.0399,81.4703 103.0539,80.6283 L103.0539,73.6173 C103.0539,72.7603 102.8649,72.0863 102.4879,71.5923 C102.1099,71.0983 101.5869,70.8513 100.9209,70.8513 L99.0039,70.8513 C98.9459,70.8513 98.9169,70.8803 98.9169,70.9383 L98.9169,83.3063 C98.9169,83.3643 98.9459,83.3933 99.0039,83.3933 M97.3709,84.5263 L97.3709,69.7193 C97.3709,69.5743 97.4439,69.5013 97.5889,69.5013 L100.9419,69.5013 C102.0599,69.5013 102.9519,69.8673 103.6199,70.6013 C104.2879,71.3343 104.6219,72.3183 104.6219,73.5513 L104.6219,80.6943 C104.6219,81.9273 104.2879,82.9113 103.6199,83.6443 C102.9519,84.3773 102.0599,84.7443 100.9419,84.7443 L97.5889,84.7443 C97.4439,84.7443 97.3709,84.6713 97.3709,84.5263" id="Fill-26" fill="#31B5B2"></path>
                <path d="M114.0283,70.8512 L108.9763,70.8512 C108.9183,70.8512 108.8893,70.8802 108.8893,70.9382 L108.8893,76.3392 C108.8893,76.3972 108.9183,76.4262 108.9763,76.4262 L112.1553,76.4262 C112.3003,76.4262 112.3733,76.4992 112.3733,76.6442 L112.3733,77.5802 C112.3733,77.7252 112.3003,77.7972 112.1553,77.7972 L108.9763,77.7972 C108.9183,77.7972 108.8893,77.8272 108.8893,77.8852 L108.8893,83.3062 C108.8893,83.3642 108.9183,83.3932 108.9763,83.3932 L114.0283,83.3932 C114.1733,83.3932 114.2463,83.4662 114.2463,83.6112 L114.2463,84.5262 C114.2463,84.6712 114.1733,84.7442 114.0283,84.7442 L107.5613,84.7442 C107.4163,84.7442 107.3433,84.6712 107.3433,84.5262 L107.3433,69.7192 C107.3433,69.5742 107.4163,69.5012 107.5613,69.5012 L114.0283,69.5012 C114.1733,69.5012 114.2463,69.5742 114.2463,69.7192 L114.2463,70.6332 C114.2463,70.7792 114.1733,70.8512 114.0283,70.8512" id="Fill-28" fill="#31B5B2"></path>
                <path d="M126.2225,75.8161 C126.6285,75.2931 126.8325,74.5961 126.8325,73.7251 C126.8325,72.8551 126.6285,72.1551 126.2225,71.6241 C125.8155,71.0951 125.2865,70.8301 124.6325,70.8301 L122.6515,70.8301 C122.5935,70.8301 122.5645,70.8591 122.5645,70.9171 L122.5645,76.5131 C122.5645,76.5711 122.5935,76.6001 122.6515,76.6001 L124.6325,76.6001 C125.2865,76.6001 125.8155,76.3391 126.2225,75.8161 M127.3985,70.6451 C128.0515,71.4211 128.3775,72.4411 128.3775,73.7041 C128.3775,74.9531 128.0585,75.9581 127.4195,76.7201 C126.7805,77.4811 125.9395,77.8621 124.8945,77.8621 L122.6515,77.8621 C122.5935,77.8621 122.5645,77.8931 122.5645,77.9491 L122.5645,84.5261 C122.5645,84.6711 122.4915,84.7441 122.3465,84.7441 L121.2365,84.7441 C121.0905,84.7441 121.0185,84.6711 121.0185,84.5261 L121.0185,69.6971 C121.0185,69.5521 121.0905,69.4801 121.2365,69.4801 L124.8285,69.4801 C125.8885,69.4801 126.7445,69.8681 127.3985,70.6451" id="Fill-30" fill="#31B5B2"></path>
                <path d="M137.3483,70.8512 L132.2963,70.8512 C132.2383,70.8512 132.2093,70.8802 132.2093,70.9382 L132.2093,76.3392 C132.2093,76.3972 132.2383,76.4262 132.2963,76.4262 L135.4753,76.4262 C135.6203,76.4262 135.6933,76.4992 135.6933,76.6442 L135.6933,77.5802 C135.6933,77.7252 135.6203,77.7972 135.4753,77.7972 L132.2963,77.7972 C132.2383,77.7972 132.2093,77.8272 132.2093,77.8852 L132.2093,83.3062 C132.2093,83.3642 132.2383,83.3932 132.2963,83.3932 L137.3483,83.3932 C137.4933,83.3932 137.5663,83.4662 137.5663,83.6112 L137.5663,84.5262 C137.5663,84.6712 137.4933,84.7442 137.3483,84.7442 L130.8813,84.7442 C130.7363,84.7442 130.6633,84.6712 130.6633,84.5262 L130.6633,69.7192 C130.6633,69.5742 130.7363,69.5012 130.8813,69.5012 L137.3483,69.5012 C137.4933,69.5012 137.5663,69.5742 137.5663,69.7192 L137.5663,70.6332 C137.5663,70.7792 137.4933,70.8512 137.3483,70.8512" id="Fill-32" fill="#31B5B2"></path>
                <path d="M141.5508,70.9167 L141.5508,76.4047 C141.5508,76.4627 141.5798,76.4917 141.6378,76.4917 L143.5968,76.4917 C144.2648,76.4917 144.8018,76.2337 145.2088,75.7187 C145.6148,75.2027 145.8188,74.5247 145.8188,73.6827 C145.8188,72.8107 145.6148,72.1177 145.2088,71.6027 C144.8018,71.0877 144.2648,70.8297 143.5968,70.8297 L141.6378,70.8297 C141.5798,70.8297 141.5508,70.8587 141.5508,70.9167 M145.8398,84.5697 L143.5968,77.7967 C143.5838,77.7537 143.5548,77.7327 143.5108,77.7327 L141.6378,77.7327 C141.5798,77.7327 141.5508,77.7617 141.5508,77.8197 L141.5508,84.5257 C141.5508,84.6707 141.4778,84.7437 141.3328,84.7437 L140.2228,84.7437 C140.0778,84.7437 140.0048,84.6707 140.0048,84.5257 L140.0048,69.6967 C140.0048,69.5517 140.0778,69.4797 140.2228,69.4797 L143.8148,69.4797 C144.8748,69.4797 145.7318,69.8647 146.3848,70.6337 C147.0388,71.4027 147.3648,72.4127 147.3648,73.6597 C147.3648,74.6187 147.1608,75.4387 146.7548,76.1207 C146.3478,76.8037 145.7978,77.2757 145.1008,77.5357 C145.0418,77.5507 145.0198,77.5877 145.0348,77.6457 L147.4078,84.5047 L147.4308,84.5917 C147.4308,84.6937 147.3648,84.7437 147.2338,84.7437 L146.1008,84.7437 C145.9708,84.7437 145.8838,84.6857 145.8398,84.5697" id="Fill-34" fill="#31B5B2"></path>
                <path d="M156.2918,70.8512 L151.2838,70.8512 C151.2258,70.8512 151.1968,70.8802 151.1968,70.9382 L151.1968,76.3392 C151.1968,76.3972 151.2258,76.4262 151.2838,76.4262 L154.4418,76.4262 C154.5868,76.4262 154.6598,76.4992 154.6598,76.6442 L154.6598,77.5802 C154.6598,77.7252 154.5868,77.7972 154.4418,77.7972 L151.2838,77.7972 C151.2258,77.7972 151.1968,77.8272 151.1968,77.8852 L151.1968,84.5262 C151.1968,84.6712 151.1238,84.7442 150.9788,84.7442 L149.8688,84.7442 C149.7238,84.7442 149.6508,84.6712 149.6508,84.5262 L149.6508,69.7192 C149.6508,69.5742 149.7238,69.5012 149.8688,69.5012 L156.2918,69.5012 C156.4368,69.5012 156.5098,69.5742 156.5098,69.7192 L156.5098,70.6332 C156.5098,70.7792 156.4368,70.8512 156.2918,70.8512" id="Fill-36" fill="#31B5B2"></path>
                <path d="M163.4449,82.9037 C163.8589,82.4617 164.0659,81.8907 164.0659,81.1947 L164.0659,73.0727 C164.0659,72.3617 163.8589,71.7847 163.4449,71.3417 C163.0319,70.8987 162.4899,70.6777 161.8239,70.6777 C161.1699,70.6777 160.6389,70.8987 160.2339,71.3417 C159.8269,71.7847 159.6239,72.3617 159.6239,73.0727 L159.6239,81.1947 C159.6239,81.8907 159.8269,82.4617 160.2339,82.9037 C160.6389,83.3467 161.1699,83.5687 161.8239,83.5687 C162.4899,83.5687 163.0319,83.3467 163.4449,82.9037 M159.1129,83.8737 C158.4219,83.1767 158.0779,82.2537 158.0779,81.1077 L158.0779,73.1387 C158.0779,71.9917 158.4219,71.0697 159.1129,70.3727 C159.8019,69.6757 160.7049,69.3277 161.8239,69.3277 C162.9549,69.3277 163.8699,69.6757 164.5669,70.3727 C165.2639,71.0697 165.6119,71.9917 165.6119,73.1387 L165.6119,81.1077 C165.6119,82.2397 165.2639,83.1577 164.5669,83.8617 C163.8699,84.5657 162.9549,84.9177 161.8239,84.9177 C160.7049,84.9177 159.8019,84.5697 159.1129,83.8737" id="Fill-38" fill="#31B5B2"></path>
                <path d="M169.9226,70.9167 L169.9226,76.4047 C169.9226,76.4627 169.9516,76.4917 170.0096,76.4917 L171.9696,76.4917 C172.6366,76.4917 173.1736,76.2337 173.5806,75.7187 C173.9866,75.2027 174.1906,74.5247 174.1906,73.6827 C174.1906,72.8107 173.9866,72.1177 173.5806,71.6027 C173.1736,71.0877 172.6366,70.8297 171.9696,70.8297 L170.0096,70.8297 C169.9516,70.8297 169.9226,70.8587 169.9226,70.9167 M174.2116,84.5697 L171.9696,77.7967 C171.9556,77.7537 171.9266,77.7327 171.8826,77.7327 L170.0096,77.7327 C169.9516,77.7327 169.9226,77.7617 169.9226,77.8197 L169.9226,84.5257 C169.9226,84.6707 169.8496,84.7437 169.7046,84.7437 L168.5946,84.7437 C168.4496,84.7437 168.3766,84.6707 168.3766,84.5257 L168.3766,69.6967 C168.3766,69.5517 168.4496,69.4797 168.5946,69.4797 L172.1866,69.4797 C173.2466,69.4797 174.1036,69.8647 174.7566,70.6337 C175.4106,71.4027 175.7366,72.4127 175.7366,73.6597 C175.7366,74.6187 175.5326,75.4387 175.1266,76.1207 C174.7196,76.8037 174.1696,77.2757 173.4726,77.5357 C173.4136,77.5507 173.3916,77.5877 173.4066,77.6457 L175.7796,84.5047 L175.8026,84.5917 C175.8026,84.6937 175.7366,84.7437 175.6056,84.7437 L174.4726,84.7437 C174.3426,84.7437 174.2556,84.6857 174.2116,84.5697" id="Fill-40" fill="#31B5B2"></path>
                <path d="M178.0012,84.526 L178.0012,69.719 C178.0012,69.575 178.0732,69.502 178.2192,69.502 L179.3512,69.502 C179.4672,69.502 179.5472,69.56 179.5902,69.675 L182.0302,75.577 C182.0442,75.606 182.0652,75.621 182.0942,75.621 C182.1232,75.621 182.1462,75.606 182.1602,75.577 L184.6202,69.675 C184.6632,69.56 184.7442,69.502 184.8602,69.502 L185.9932,69.502 C186.1382,69.502 186.2102,69.575 186.2102,69.719 L186.2102,84.526 C186.2102,84.671 186.1382,84.744 185.9932,84.744 L184.8812,84.744 C184.7362,84.744 184.6632,84.671 184.6632,84.526 L184.6632,73.378 C184.6632,73.334 184.6492,73.312 184.6202,73.312 C184.5912,73.312 184.5692,73.326 184.5552,73.355 L182.3352,78.407 C182.2902,78.524 182.2252,78.582 182.1382,78.582 C182.0362,78.582 181.9642,78.524 181.9202,78.407 L179.6562,73.334 C179.6422,73.305 179.6192,73.291 179.5902,73.291 C179.5612,73.291 179.5472,73.312 179.5472,73.355 L179.5472,84.526 C179.5472,84.671 179.4742,84.744 179.3292,84.744 L178.2192,84.744 C178.0732,84.744 178.0012,84.671 178.0012,84.526" id="Fill-42" fill="#31B5B2"></path>
                <path d="M191.3056,80.4975 L194.7246,80.4975 C194.7676,80.4975 194.7886,80.4685 194.7886,80.4105 L193.0686,72.0265 C193.0546,71.9845 193.0396,71.9625 193.0256,71.9625 C193.0106,71.9625 192.9966,71.9845 192.9816,72.0265 L191.2406,80.4105 C191.2406,80.4685 191.2616,80.4975 191.3056,80.4975 M195.6376,84.5475 L195.0936,81.8485 C195.0936,81.8195 195.0826,81.7965 195.0616,81.7825 C195.0396,81.7675 195.0146,81.7605 194.9856,81.7605 L191.0436,81.7605 C191.0146,81.7605 190.9896,81.7675 190.9676,81.7825 C190.9456,81.7965 190.9356,81.8195 190.9356,81.8485 L190.3696,84.5475 C190.3546,84.6785 190.2746,84.7445 190.1296,84.7445 L189.0186,84.7445 C188.9466,84.7445 188.8916,84.7215 188.8556,84.6785 C188.8186,84.6345 188.8086,84.5765 188.8236,84.5045 L192.1106,69.6975 C192.1396,69.5675 192.2196,69.5015 192.3506,69.5015 L193.6566,69.5015 C193.8016,69.5015 193.8816,69.5675 193.8966,69.6975 L197.2066,84.5045 L197.2066,84.5475 C197.2066,84.6785 197.1416,84.7445 197.0106,84.7445 L195.8776,84.7445 C195.7476,84.7445 195.6666,84.6785 195.6376,84.5475" id="Fill-44" fill="#31B5B2"></path>
                <path d="M199.5356,84.526 L199.5356,69.719 C199.5356,69.575 199.6086,69.502 199.7536,69.502 L200.9076,69.502 C201.0236,69.502 201.1036,69.56 201.1476,69.675 L205.5236,80.65 C205.5376,80.694 205.5596,80.715 205.5886,80.715 C205.6176,80.715 205.6316,80.694 205.6316,80.65 L205.6316,69.719 C205.6316,69.575 205.7046,69.502 205.8496,69.502 L206.9386,69.502 C207.0836,69.502 207.1566,69.575 207.1566,69.719 L207.1566,84.526 C207.1566,84.671 207.0836,84.744 206.9386,84.744 L205.7836,84.744 C205.6686,84.744 205.5886,84.686 205.5446,84.57 L201.1686,73.595 C201.1546,73.552 201.1326,73.533 201.1036,73.541 C201.0746,73.548 201.0606,73.573 201.0606,73.617 L201.0816,84.526 C201.0816,84.671 201.0086,84.744 200.8636,84.744 L199.7536,84.744 C199.6086,84.744 199.5356,84.671 199.5356,84.526" id="Fill-46" fill="#31B5B2"></path>
                <path d="M210.9122,83.8947 C210.2382,83.2127 209.8992,82.2977 209.8992,81.1517 L209.8992,73.0727 C209.8992,71.9397 210.2382,71.0327 210.9122,70.3507 C211.5872,69.6677 212.4842,69.3277 213.6022,69.3277 C214.7342,69.3277 215.6372,69.6647 216.3132,70.3397 C216.9872,71.0147 217.3252,71.9257 217.3252,73.0727 L217.3252,73.4427 C217.3252,73.5877 217.2522,73.6597 217.1072,73.6597 L215.9752,73.7257 C215.8302,73.7257 215.7582,73.6537 215.7582,73.5077 L215.7582,72.9637 C215.7582,72.2817 215.5612,71.7297 215.1692,71.3087 C214.7772,70.8877 214.2542,70.6777 213.6022,70.6777 C212.9632,70.6777 212.4442,70.8877 212.0452,71.3087 C211.6452,71.7297 211.4462,72.2817 211.4462,72.9637 L211.4462,81.2817 C211.4462,81.9637 211.6452,82.5157 212.0452,82.9367 C212.4442,83.3577 212.9632,83.5687 213.6022,83.5687 C214.2542,83.5687 214.7772,83.3577 215.1692,82.9367 C215.5612,82.5157 215.7582,81.9637 215.7582,81.2817 L215.7582,80.7367 C215.7582,80.5917 215.8302,80.5187 215.9752,80.5187 L217.1072,80.5847 C217.2522,80.5847 217.3252,80.6577 217.3252,80.8027 L217.3252,81.1517 C217.3252,82.2977 216.9842,83.2127 216.3022,83.8947 C215.6192,84.5767 214.7192,84.9177 213.6022,84.9177 C212.4842,84.9177 211.5872,84.5767 210.9122,83.8947" id="Fill-48" fill="#31B5B2"></path>
                <path d="M226.6668,70.8512 L221.6148,70.8512 C221.5568,70.8512 221.5278,70.8802 221.5278,70.9382 L221.5278,76.3392 C221.5278,76.3972 221.5568,76.4262 221.6148,76.4262 L224.7938,76.4262 C224.9388,76.4262 225.0118,76.4992 225.0118,76.6442 L225.0118,77.5802 C225.0118,77.7252 224.9388,77.7972 224.7938,77.7972 L221.6148,77.7972 C221.5568,77.7972 221.5278,77.8272 221.5278,77.8852 L221.5278,83.3062 C221.5278,83.3642 221.5568,83.3932 221.6148,83.3932 L226.6668,83.3932 C226.8118,83.3932 226.8848,83.4662 226.8848,83.6112 L226.8848,84.5262 C226.8848,84.6712 226.8118,84.7442 226.6668,84.7442 L220.1998,84.7442 C220.0548,84.7442 219.9818,84.6712 219.9818,84.5262 L219.9818,69.7192 C219.9818,69.5742 220.0548,69.5012 220.1998,69.5012 L226.6668,69.5012 C226.8118,69.5012 226.8848,69.5742 226.8848,69.7192 L226.8848,70.6332 C226.8848,70.7792 226.8118,70.8512 226.6668,70.8512" id="Fill-50" fill="#31B5B2"></path>
                <path d="M0.831,57.462 C0.646,57.277 0.554,57.054 0.554,56.79 L0.554,17.955 C0.554,17.692 0.646,17.467 0.831,17.283 C1.015,17.098 1.239,17.006 1.503,17.006 L10.757,17.006 C11.021,17.006 11.244,17.098 11.43,17.283 C11.614,17.467 11.707,17.692 11.707,17.955 L11.707,56.79 C11.707,57.054 11.614,57.277 11.43,57.462 C11.244,57.648 11.021,57.739 10.757,57.739 L1.503,57.739 C1.239,57.739 1.015,57.648 0.831,57.462 M1.78,10.718 C0.594,9.531 2.84217094e-14,8.042 2.84217094e-14,6.249 C2.84217094e-14,4.403 0.58,2.901 1.74,1.741 C2.9,0.581 4.403,0 6.249,0 C8.094,0 9.597,0.581 10.757,1.741 C11.917,2.901 12.497,4.403 12.497,6.249 C12.497,8.042 11.904,9.531 10.718,10.718 C9.531,11.904 8.041,12.497 6.249,12.497 C4.456,12.497 2.967,11.904 1.78,10.718" id="Fill-52" fill="#223234"></path>
                <path d="M51.411,46.2707 C53.203,44.4247 54.1,41.9727 54.1,38.9147 L54.1,21.5137 C54.1,18.4557 53.216,15.9907 51.45,14.1187 C49.683,12.2477 47.324,11.3107 44.372,11.3107 C41.471,11.3107 39.138,12.2477 37.372,14.1187 C35.604,15.9907 34.722,18.4557 34.722,21.5137 L34.722,38.9147 C34.722,41.9727 35.604,44.4247 37.372,46.2707 C39.138,48.1167 41.471,49.0387 44.372,49.0387 C47.271,49.0387 49.617,48.1167 51.411,46.2707 M33.496,56.0777 C30.358,54.3907 27.92,52.0307 26.18,48.9987 C24.44,45.9677 23.57,42.4737 23.57,38.5187 L23.57,21.5927 C23.57,17.6917 24.44,14.2377 26.18,11.2307 C27.92,8.2257 30.358,5.8927 33.496,4.2317 C36.632,2.5707 40.259,1.7407 44.372,1.7407 C48.536,1.7407 52.188,2.5707 55.326,4.2317 C58.463,5.8927 60.902,8.2257 62.642,11.2307 C64.382,14.2377 65.252,17.6917 65.252,21.5927 L65.252,38.5187 C65.252,42.4737 64.382,45.9807 62.642,49.0387 C60.902,52.0967 58.463,54.4567 55.326,56.1177 C52.188,57.7787 48.536,58.6087 44.372,58.6087 C40.259,58.6087 36.632,57.7647 33.496,56.0777" id="Fill-54" fill="#223234"></path>
                <path d="M88.504,12.3392 L88.504,25.8642 C88.504,26.1292 88.635,26.2602 88.899,26.2602 L99.26,26.2602 C101.477,26.2602 103.283,25.6002 104.678,24.2822 C106.076,22.9642 106.774,21.2512 106.774,19.1412 C106.774,17.0322 106.076,15.3052 104.678,13.9602 C103.283,12.6162 101.477,11.9432 99.26,11.9432 L88.899,11.9432 C88.635,11.9432 88.504,12.0762 88.504,12.3392 M106.618,57.0272 L96.731,35.1182 C96.623,34.9072 96.467,34.8012 96.256,34.8012 L88.899,34.8012 C88.635,34.8012 88.504,34.9332 88.504,35.1972 L88.504,56.7902 C88.504,57.0542 88.412,57.2772 88.227,57.4622 C88.042,57.6482 87.819,57.7392 87.555,57.7392 L78.302,57.7392 C78.037,57.7392 77.814,57.6482 77.629,57.4622 C77.444,57.2772 77.352,57.0542 77.352,56.7902 L77.352,3.3222 C77.352,3.0592 77.444,2.8362 77.629,2.6502 C77.814,2.4652 78.037,2.3732 78.302,2.3732 L100.923,2.3732 C104.296,2.3732 107.262,3.0592 109.819,4.4292 C112.377,5.8012 114.355,7.7512 115.753,10.2822 C117.149,12.8142 117.849,15.7392 117.849,19.0622 C117.849,22.6482 116.951,25.7202 115.16,28.2762 C113.367,30.8352 110.861,32.6402 107.646,33.6942 C107.38,33.8002 107.303,33.9842 107.408,34.2482 L118.164,56.6312 C118.269,56.8422 118.323,57.0012 118.323,57.1052 C118.323,57.5282 118.033,57.7392 117.453,57.7392 L107.723,57.7392 C107.197,57.7392 106.828,57.5022 106.618,57.0272" id="Fill-56" fill="#223234"></path>
                <path d="M138.1761,55.9191 C135.0631,54.2861 132.6521,52.0041 130.9381,49.0781 C129.2241,46.1511 128.3681,42.7641 128.3681,38.9151 L128.3681,21.1971 C128.3681,17.3491 129.2241,13.9481 130.9381,10.9941 C132.6521,8.0421 135.0631,5.7621 138.1761,4.1531 C141.2871,2.5451 144.8721,1.7401 148.9321,1.7401 C152.9381,1.7401 156.4861,2.5311 159.5711,4.1131 C162.6551,5.6951 165.0541,7.8451 166.7681,10.5591 C168.4811,13.2751 169.3381,16.2941 169.3381,19.6161 L169.3381,20.1691 C169.3381,20.4341 169.2461,20.6571 169.0611,20.8421 C168.8771,21.0271 168.6521,21.1181 168.3891,21.1181 L159.1351,21.1181 C158.8711,21.1181 158.6471,21.0271 158.4631,20.8421 C158.2781,20.6571 158.1861,20.4341 158.1861,20.1691 L158.1861,19.9311 C158.1861,17.5071 157.3421,15.4631 155.6551,13.8031 C153.9671,12.1421 151.7261,11.3101 148.9321,11.3101 C146.0851,11.3101 143.8031,12.1941 142.0911,13.9601 C140.3761,15.7281 139.5201,18.0341 139.5201,20.8811 L139.5201,39.2301 C139.5201,42.0781 140.4421,44.3851 142.2881,46.1511 C144.1331,47.9191 146.4801,48.8011 149.3281,48.8011 C152.0691,48.8011 154.2571,48.0771 155.8921,46.6261 C157.5261,45.1761 158.3451,43.1591 158.3451,40.5761 L158.3451,37.0161 C158.3451,36.7531 158.2131,36.6211 157.9481,36.6211 L149.0901,36.6211 C148.8261,36.6211 148.6021,36.5291 148.4181,36.3441 C148.2321,36.1591 148.1411,35.9361 148.1411,35.6721 L148.1411,28.3941 C148.1411,28.1311 148.2321,27.9081 148.4181,27.7221 C148.6021,27.5391 148.8261,27.4461 149.0901,27.4461 L168.3891,27.4461 C168.6521,27.4461 168.8771,27.5391 169.0611,27.7221 C169.2461,27.9081 169.3381,28.1311 169.3381,28.3941 L169.3381,38.8351 C169.3381,42.8431 168.4941,46.3231 166.8081,49.2761 C165.1201,52.2301 162.7341,54.4831 159.6491,56.0381 C156.5641,57.5941 152.9921,58.3711 148.9321,58.3711 C144.8721,58.3711 141.2871,57.5541 138.1761,55.9191" id="Fill-58" fill="#223234"></path>
                <path d="M194.8865,40.259 L208.8065,40.259 C209.1225,40.259 209.2275,40.101 209.1225,39.784 L202.0055,16.294 C201.9515,16.083 201.8735,15.991 201.7675,16.017 C201.6615,16.044 201.5825,16.136 201.5305,16.294 L194.5695,39.784 C194.5175,40.101 194.6225,40.259 194.8865,40.259 M214.3425,56.948 L211.9695,49.197 C211.8635,48.986 211.7325,48.88 211.5745,48.88 L192.1185,48.88 C191.9595,48.88 191.8275,48.986 191.7225,49.197 L189.4285,56.948 C189.2705,57.476 188.9275,57.739 188.4015,57.739 L178.3555,57.739 C178.0395,57.739 177.8025,57.648 177.6435,57.462 C177.4855,57.277 177.4595,57.001 177.5655,56.631 L194.6495,3.164 C194.8075,2.637 195.1495,2.373 195.6775,2.373 L208.0945,2.373 C208.6205,2.373 208.9645,2.637 209.1225,3.164 L226.2075,56.631 C226.2585,56.737 226.2855,56.868 226.2855,57.027 C226.2855,57.502 225.9955,57.739 225.4155,57.739 L215.3715,57.739 C214.8435,57.739 214.5015,57.476 214.3425,56.948" id="Fill-60" fill="#223234"></path>
            </g> -->
    </g>
  </g>
</svg>
