<?xml version="1.0" encoding="UTF-8"?><svg xmlns="http://www.w3.org/2000/svg" viewBox="0 0 314.82 227.01"><defs><style>.g{fill:#ffbc00;}.h{fill:#4040b2;}.i{fill:#36cc75;}</style></defs><g id="a"/><g id="b"/><g id="c"><path class="i" d="M188.08,7.61c.13,.14,.25,.29,.38,.44-.12-.15-.25-.3-.38-.44Z"/><path class="i" d="M188.78,8.46c.15,.19,.29,.39,.42,.59-.14-.2-.28-.4-.42-.59Z"/><path class="i" d="M189.43,9.39c.21,.33,.42,.67,.61,1.03-.2-.36-.4-.7-.61-1.03Z"/><path class="i" d="M187.37,6.87c.11,.11,.22,.21,.32,.32-.1-.11-.21-.21-.32-.32Z"/><path class="i" d="M185.34,5.14s.09,.07,.14,.1c-.05-.03-.09-.07-.14-.1Z"/><path class="i" d="M306.93,3.88c-5.01-2.7-10.68-4.05-17-4.05h-21.05c-8.18,0-14.46,1.43-18.85,4.28-4.39,2.86-7.52,8.38-9.37,16.56l-25.21,110.93-23.02-113.96c-.59-3.01-1.37-5.32-2.38-7.19l-33.04,104.49,29.22,92.76c2.82,7.18,5.53,11.21,9.07,14.46,3.55,3.24,9.71,4.86,18.5,4.86h18.27c6.32,0,11.48-1,15.5-3.01,4.01-2,6.94-6.09,8.79-12.27L313.06,28.78c.93-3.24,1.39-6.41,1.39-9.5,0-7.56-2.51-12.7-7.52-15.4Z"/><path class="h" d="M122.59,17.28l-23.23,114.32L74.37,20.67c-1.7-7.87-4.82-13.31-9.37-16.33C60.45,1.34,54.1-.17,45.93-.17H25.11C18.79-.17,13.08,1.22,7.99,4,2.91,6.78,.36,11.87,.36,19.28v1.39c0,3.55,.3,6.26,.92,8.11L57.41,211.73c2,6.18,5.01,10.27,9.02,12.27,4.01,2.01,9.1,3.01,15.26,3.01h18.9c6.01,0,10.79-.77,14.34-2.31,3.55-1.54,6.28-3.86,8.21-6.95,1.93-3.09,3.26-5.6,4.71-10.06l29.16-92.76c-1.95-6.19-24.64-77.64-32.68-103.13-.7,1.6-1.29,3.39-1.75,5.48Z"/><path class="g" d="M187.69,7.18c.13,.14,.26,.28,.39,.43-.13-.14-.25-.29-.39-.43Z"/><path class="g" d="M188.45,8.05c.11,.13,.22,.27,.32,.41-.11-.14-.21-.28-.32-.41Z"/><path class="g" d="M185.48,5.24c.68,.51,1.31,1.05,1.89,1.63-.58-.58-1.21-1.12-1.89-1.63Z"/><path class="g" d="M190.06,10.45v0h0Z"/><polygon class="g" points="157.02 114.93 157.02 114.94 157.02 114.94 157.02 114.93 157.02 114.93"/><path class="g" d="M189.2,9.06c.08,.11,.16,.22,.23,.34-.08-.12-.15-.23-.23-.34Z"/><path class="g" d="M190.05,10.42c-.2-.36-.4-.7-.61-1.03-.08-.12-.15-.23-.23-.34-.14-.2-.28-.4-.42-.59-.11-.14-.21-.28-.32-.41-.12-.15-.25-.3-.38-.44-.13-.14-.25-.29-.39-.43-.1-.11-.21-.21-.32-.32-.58-.58-1.21-1.12-1.89-1.63-.05-.03-.09-.07-.14-.1-.8-.6-1.67-1.17-2.61-1.74C178.65,.93,175.55-.05,169.67-.05c-5.94,.08-18.24,.08-26.04,.05-4.34,0-8.46,1.45-11.37,3-3.63,1.92-6.17,4.73-7.93,8.77v.04c8.06,25.49,30.74,96.95,32.69,103.13h0L190.06,10.45v-.03Z"/></g><g id="d"/><g id="e"/><g id="f"/></svg>