<?xml version="1.0" encoding="utf-8"?>
<!-- Generator: Adobe Illustrator 23.0.2, SVG Export Plug-In . SVG Version: 6.00 Build 0)  -->
<svg version="1.1" id="Calque_1" xmlns="http://www.w3.org/2000/svg" xmlns:xlink="http://www.w3.org/1999/xlink" x="0px" y="0px"
	 viewBox="0 0 258.29 339.34" style="enable-background:new 0 0 258.29 339.34;" xml:space="preserve">
<style type="text/css">
	.st0{fill:#929292;}
	.st1{fill:#006891;}
	.st2{clip-path:url(#SVGID_2_);}
	.st3{opacity:0.5;fill:url(#SVGID_3_);}
	.st4{clip-path:url(#SVGID_5_);}
	.st5{fill:#C7D300;}
	.st6{opacity:0.3;fill:url(#SVGID_6_);}
	.st7{fill:#E3E3E3;}
	.st8{fill:none;}
</style>
<rect x="42.53" y="265.92" class="st0" width="174.52" height="1.21"/>
<g>
	<g>
		<path class="st0" d="M48.34,291.92H52c-0.09,2.09-1.48,3.48-3.52,3.48c-2.57,0-4.29-1.88-4.29-4.68c0-2.75,1.73-4.68,4.21-4.68
			c2.03,0,2.96,1.17,3.47,2.06l0.12,0.2l1.43-0.86l-0.1-0.19c-0.92-1.77-2.69-2.79-4.84-2.79c-3.45,0-5.95,2.64-5.95,6.27
			c0,3.69,2.45,6.27,5.95,6.27c1.39,0,2.7-0.58,3.67-1.59l0.22,1.39h1.29v-6.46h-5.33V291.92z"/>
		<path class="st0" d="M71.44,288.56c0-2.19-1.74-3.9-3.97-3.9h-5.13v12.13H64v-4.33h3.21l3.12,4.33h1.93l-3.3-4.55
			C69.66,291.91,71.44,290.82,71.44,288.56 M69.79,288.56c0,1.51-1.34,2.31-2.31,2.31H64v-4.62h3.48
			C68.45,286.25,69.79,287.05,69.79,288.56"/>
		<path class="st0" d="M85.29,284.46c-3.45,0-5.95,2.64-5.95,6.27c0,3.57,2.56,6.27,5.95,6.27c3.39,0,5.95-2.69,5.95-6.27
			C91.24,287.04,88.79,284.46,85.29,284.46 M85.29,295.4c-2.57,0-4.29-1.88-4.29-4.68c0-2.8,1.72-4.68,4.29-4.68
			c2.57,0,4.29,1.88,4.29,4.68C89.58,293.52,87.86,295.4,85.29,295.4"/>
		<path class="st0" d="M108.33,291.84c0,2.45-1.75,3.56-3.38,3.56c-1.63,0-3.38-1.12-3.38-3.56v-7.18h-1.66v7.49
			c0,2.38,1.88,4.85,5.03,4.85c3.15,0,5.03-2.47,5.03-4.85v-7.49h-1.66V291.84z"/>
		<path class="st0" d="M124.2,284.66h-4.84v12.14h1.66v-4.1h3.18c2.03,0,4.08-1.24,4.08-4.02
			C128.28,285.71,126.08,284.66,124.2,284.66 M126.63,288.68c0,1.79-1.31,2.43-2.43,2.43h-3.18v-4.85h3.18
			C125.32,286.25,126.63,286.89,126.63,288.68"/>
		<polygon class="st0" points="145.17,286.25 145.17,284.66 137.66,284.66 137.66,296.79 145.17,296.79 145.17,295.2 139.31,295.2 
			139.31,291.3 144.84,291.3 144.84,289.71 139.31,289.71 139.31,286.25 		"/>
	</g>
	<g>
		<path class="st0" d="M214.73,281.46c-4.57,0-5.68,4.94-7.55,13.07c-2.61-1.67-0.69-11.75-6.49-11.75c-0.83,0-1.76,0.2-2.92,0.66
			c3.69,7.09,3.03,15.45,10.08,15.45c0.6,0,1.21-0.05,1.87-0.15l7.32-16.93C216.16,281.62,215.39,281.46,214.73,281.46"/>
		<path class="st0" d="M168.15,294.53c-2.61-1.67-0.69-11.75-6.49-11.75c-0.83,0-1.76,0.2-2.92,0.66
			c3.69,7.09,3.03,15.45,10.08,15.45c0.61,0,1.21-0.05,1.87-0.15l7.32-16.93c-0.88-0.2-1.65-0.36-2.31-0.36
			C171.13,281.46,170.02,286.41,168.15,294.53"/>
		<path class="st0" d="M187.46,294.87c-1.77-2.94-0.61-12.08-5.92-12.08c-0.83,0-1.76,0.2-2.92,0.66
			c3.28,6.29,3.03,13.59,7.86,15.14c-0.47,1.57-1.14,3.05-2.14,3.05c-0.77,0-1.6-0.25-2.48-0.25c-2.09,0-2.7,0.92-3.36,2.96
			c1.76,0.97,3.36,1.43,4.73,1.43c3.25,0,5.69-2.95,7.32-7.04c1.02-2.56,6.77-16.93,6.77-16.93c-0.66-0.2-1.27-0.36-1.76-0.36
			C190.68,281.46,189.68,286.45,187.46,294.87"/>
	</g>
</g>
<g>
	<path class="st1" d="M28.31,248.05c0.12,0,0.23,0.05,0.32,0.14c0.09,0.09,0.14,0.2,0.14,0.32v0.61c0,0.12-0.04,0.23-0.14,0.32
		c-0.09,0.09-0.2,0.14-0.32,0.14h-6.87c-0.12,0-0.23-0.04-0.32-0.14c-0.09-0.09-0.14-0.2-0.14-0.32v-10.98
		c0-0.12,0.05-0.23,0.14-0.32c0.09-0.09,0.2-0.14,0.32-0.14h6.73c0.12,0,0.23,0.05,0.32,0.14c0.09,0.09,0.14,0.2,0.14,0.32v0.61
		c0,0.12-0.05,0.23-0.14,0.32c-0.09,0.09-0.2,0.14-0.32,0.14H22.6v3.59h5.2c0.12,0,0.23,0.05,0.32,0.14
		c0.09,0.09,0.14,0.2,0.14,0.32v0.61c0,0.12-0.05,0.23-0.14,0.32c-0.09,0.09-0.2,0.14-0.32,0.14h-5.2v3.72H28.31z M25.13,234.45
		c0.12,0,0.23,0.02,0.32,0.07c0.09,0.05,0.19,0.13,0.31,0.25l1.56,1.56c0.06,0.06,0.08,0.13,0.08,0.22c0,0.18-0.09,0.27-0.27,0.27
		h-0.44c-0.11,0-0.2-0.01-0.27-0.04s-0.15-0.08-0.25-0.14l-1.29-0.87l-1.29,0.87c-0.1,0.07-0.19,0.12-0.25,0.14
		c-0.07,0.03-0.16,0.04-0.27,0.04h-0.44c-0.18,0-0.27-0.09-0.27-0.27c0-0.09,0.03-0.16,0.08-0.22l1.56-1.56
		c0.11-0.12,0.21-0.21,0.31-0.25c0.09-0.04,0.2-0.07,0.32-0.07H25.13z"/>
	<path class="st1" d="M32.69,246.6c0,0.22,0.02,0.42,0.06,0.6s0.11,0.35,0.21,0.48c0.1,0.14,0.25,0.24,0.43,0.31
		c0.19,0.07,0.43,0.11,0.72,0.11h0.9c0.12,0,0.23,0.05,0.32,0.14c0.09,0.09,0.14,0.2,0.14,0.32v0.54c0,0.12-0.04,0.23-0.14,0.32
		c-0.09,0.09-0.2,0.14-0.32,0.14h-1.07c-0.99,0-1.7-0.25-2.14-0.77c-0.44-0.51-0.66-1.25-0.66-2.21v-4.4h-1.26
		c-0.12,0-0.23-0.05-0.32-0.14c-0.09-0.09-0.14-0.2-0.14-0.32v-0.54c0-0.12,0.04-0.23,0.14-0.32c0.09-0.09,0.2-0.14,0.32-0.14h1.26
		v-2.77c0-0.12,0.04-0.23,0.14-0.32c0.09-0.09,0.2-0.14,0.32-0.14h0.63c0.12,0,0.23,0.05,0.32,0.14c0.09,0.09,0.14,0.2,0.14,0.32
		v2.77h2.16c0.12,0,0.23,0.05,0.32,0.14c0.09,0.09,0.14,0.2,0.14,0.32v0.54c0,0.12-0.04,0.23-0.14,0.32
		c-0.09,0.09-0.2,0.14-0.32,0.14h-2.16V246.6z"/>
	<path class="st1" d="M41.33,240.74c0.12,0,0.23,0.05,0.32,0.14c0.09,0.09,0.14,0.2,0.14,0.32v0.54c0,0.12-0.05,0.23-0.14,0.32
		c-0.09,0.09-0.2,0.14-0.32,0.14h-0.99c-1.3,0-1.96,0.65-1.96,1.96v4.96c0,0.12-0.05,0.23-0.14,0.32c-0.09,0.09-0.2,0.14-0.32,0.14
		H37.3c-0.12,0-0.23-0.04-0.32-0.14c-0.09-0.09-0.14-0.2-0.14-0.32v-7.92c0-0.12,0.04-0.23,0.14-0.32c0.09-0.09,0.2-0.14,0.32-0.14
		h0.63c0.12,0,0.23,0.05,0.32,0.14c0.09,0.09,0.14,0.2,0.14,0.32v0.53c0.23-0.34,0.5-0.59,0.82-0.75c0.32-0.16,0.73-0.24,1.24-0.24
		H41.33z"/>
	<path class="st1" d="M42.33,244.31c0.04-0.52,0.17-1.01,0.37-1.46c0.2-0.45,0.47-0.85,0.8-1.19c0.33-0.34,0.72-0.61,1.18-0.8
		c0.46-0.19,0.97-0.29,1.54-0.29c0.61,0,1.16,0.1,1.64,0.3c0.48,0.2,0.89,0.48,1.23,0.86s0.6,0.83,0.78,1.36
		c0.18,0.53,0.27,1.13,0.27,1.79v0.46c0,0.12-0.04,0.23-0.14,0.32s-0.2,0.14-0.32,0.14h-5.85v0.1c0.02,0.77,0.26,1.36,0.71,1.78
		c0.45,0.41,1.01,0.62,1.67,0.62c0.62,0,1.09-0.09,1.4-0.26c0.31-0.18,0.56-0.37,0.76-0.59c0.09-0.09,0.17-0.15,0.24-0.19
		c0.07-0.03,0.17-0.05,0.31-0.05h0.51c0.12,0,0.24,0.05,0.34,0.14c0.1,0.09,0.14,0.2,0.12,0.32c-0.03,0.2-0.13,0.43-0.29,0.67
		c-0.16,0.24-0.39,0.47-0.69,0.68c-0.3,0.21-0.67,0.39-1.12,0.53c-0.45,0.14-0.97,0.21-1.57,0.21c-0.57,0-1.08-0.1-1.53-0.3
		s-0.85-0.47-1.18-0.82c-0.33-0.35-0.6-0.75-0.81-1.22c-0.2-0.47-0.33-0.98-0.37-1.54C42.28,245.35,42.28,244.83,42.33,244.31z
		 M43.85,244.36h4.78v-0.05c0-0.69-0.22-1.24-0.66-1.66c-0.44-0.41-1.02-0.62-1.74-0.62c-0.33,0-0.63,0.05-0.92,0.16
		c-0.28,0.11-0.53,0.26-0.75,0.46c-0.22,0.2-0.39,0.44-0.51,0.72c-0.12,0.28-0.19,0.6-0.2,0.94V244.36z"/>
	<path class="st1" d="M55.59,241.2c0-0.12,0.04-0.23,0.14-0.32c0.09-0.09,0.2-0.14,0.32-0.14h0.63c0.12,0,0.23,0.05,0.32,0.14
		c0.09,0.09,0.14,0.2,0.14,0.32v4.49c0,0.87,0.2,1.52,0.59,1.96c0.39,0.43,0.96,0.65,1.71,0.65c0.71,0,1.28-0.22,1.68-0.65
		c0.41-0.43,0.61-1.08,0.61-1.96v-4.49c0-0.12,0.04-0.23,0.14-0.32c0.09-0.09,0.2-0.14,0.32-0.14h0.63c0.12,0,0.23,0.05,0.32,0.14
		c0.09,0.09,0.14,0.2,0.14,0.32v7.92c0,0.12-0.04,0.23-0.14,0.32c-0.09,0.09-0.2,0.14-0.32,0.14h-0.63c-0.12,0-0.23-0.04-0.32-0.14
		c-0.09-0.09-0.14-0.2-0.14-0.32v-0.53c-0.21,0.28-0.52,0.55-0.92,0.79c-0.4,0.24-0.94,0.37-1.63,0.37c-0.53,0-1.02-0.09-1.46-0.26
		c-0.44-0.18-0.82-0.43-1.14-0.75c-0.32-0.32-0.56-0.72-0.73-1.19c-0.17-0.47-0.25-1.01-0.25-1.61V241.2z"/>
	<path class="st1" d="M67.8,246.6c0,0.22,0.02,0.42,0.06,0.6s0.11,0.35,0.21,0.48c0.1,0.14,0.25,0.24,0.43,0.31
		c0.19,0.07,0.43,0.11,0.72,0.11h0.9c0.12,0,0.23,0.05,0.32,0.14c0.09,0.09,0.14,0.2,0.14,0.32v0.54c0,0.12-0.04,0.23-0.14,0.32
		c-0.09,0.09-0.2,0.14-0.32,0.14h-1.07c-0.99,0-1.7-0.25-2.14-0.77c-0.44-0.51-0.66-1.25-0.66-2.21v-4.4h-1.26
		c-0.12,0-0.23-0.05-0.32-0.14c-0.09-0.09-0.14-0.2-0.14-0.32v-0.54c0-0.12,0.04-0.23,0.14-0.32c0.09-0.09,0.2-0.14,0.32-0.14h1.26
		v-2.77c0-0.12,0.04-0.23,0.14-0.32c0.09-0.09,0.2-0.14,0.32-0.14h0.63c0.12,0,0.23,0.05,0.32,0.14c0.09,0.09,0.14,0.2,0.14,0.32
		v2.77h2.16c0.12,0,0.23,0.05,0.32,0.14c0.09,0.09,0.14,0.2,0.14,0.32v0.54c0,0.12-0.04,0.23-0.14,0.32
		c-0.09,0.09-0.2,0.14-0.32,0.14H67.8V246.6z"/>
	<path class="st1" d="M73.66,238.94c0,0.12-0.04,0.23-0.14,0.32s-0.2,0.14-0.32,0.14h-0.97c-0.12,0-0.23-0.04-0.32-0.14
		s-0.14-0.2-0.14-0.32v-0.97c0-0.12,0.04-0.23,0.14-0.32c0.09-0.09,0.2-0.14,0.32-0.14h0.97c0.12,0,0.23,0.05,0.32,0.14
		c0.09,0.09,0.14,0.2,0.14,0.32V238.94z M73.49,249.12c0,0.12-0.05,0.23-0.14,0.32c-0.09,0.09-0.2,0.14-0.32,0.14h-0.63
		c-0.12,0-0.23-0.04-0.32-0.14c-0.09-0.09-0.14-0.2-0.14-0.32v-7.92c0-0.12,0.04-0.23,0.14-0.32c0.09-0.09,0.2-0.14,0.32-0.14h0.63
		c0.12,0,0.23,0.05,0.32,0.14c0.09,0.09,0.14,0.2,0.14,0.32V249.12z"/>
	<path class="st1" d="M77.25,249.12c0,0.12-0.05,0.23-0.14,0.32c-0.09,0.09-0.2,0.14-0.32,0.14h-0.63c-0.12,0-0.23-0.04-0.32-0.14
		c-0.09-0.09-0.14-0.2-0.14-0.32v-11.15c0-0.12,0.04-0.23,0.14-0.32c0.09-0.09,0.2-0.14,0.32-0.14h0.63c0.12,0,0.23,0.05,0.32,0.14
		c0.09,0.09,0.14,0.2,0.14,0.32V249.12z"/>
	<path class="st1" d="M79.05,244.31c0.04-0.52,0.17-1.01,0.37-1.46s0.47-0.85,0.8-1.19c0.33-0.34,0.72-0.61,1.18-0.8
		c0.46-0.19,0.97-0.29,1.54-0.29c0.61,0,1.16,0.1,1.64,0.3s0.89,0.48,1.23,0.86c0.34,0.37,0.6,0.83,0.78,1.36
		c0.18,0.53,0.27,1.13,0.27,1.79v0.46c0,0.12-0.05,0.23-0.14,0.32s-0.2,0.14-0.32,0.14h-5.85v0.1c0.02,0.77,0.26,1.36,0.71,1.78
		c0.45,0.41,1.01,0.62,1.67,0.62c0.62,0,1.09-0.09,1.4-0.26c0.31-0.18,0.56-0.37,0.76-0.59c0.09-0.09,0.17-0.15,0.24-0.19
		c0.07-0.03,0.17-0.05,0.31-0.05h0.51c0.12,0,0.24,0.05,0.34,0.14c0.1,0.09,0.14,0.2,0.12,0.32c-0.03,0.2-0.13,0.43-0.29,0.67
		c-0.16,0.24-0.39,0.47-0.69,0.68c-0.3,0.21-0.67,0.39-1.12,0.53c-0.45,0.14-0.97,0.21-1.57,0.21c-0.57,0-1.08-0.1-1.53-0.3
		c-0.45-0.2-0.85-0.47-1.18-0.82c-0.33-0.35-0.6-0.75-0.81-1.22s-0.33-0.98-0.37-1.54C79,245.35,79,244.83,79.05,244.31z
		 M80.57,244.36h4.78v-0.05c0-0.69-0.22-1.24-0.65-1.66c-0.44-0.41-1.02-0.62-1.74-0.62c-0.33,0-0.63,0.05-0.92,0.16
		c-0.28,0.11-0.53,0.26-0.75,0.46c-0.22,0.2-0.39,0.44-0.51,0.72c-0.12,0.28-0.19,0.6-0.2,0.94V244.36z"/>
	<path class="st1" d="M91.99,244.31c0.04-0.52,0.17-1.01,0.37-1.46c0.2-0.45,0.47-0.85,0.8-1.19c0.33-0.34,0.72-0.61,1.18-0.8
		c0.46-0.19,0.97-0.29,1.54-0.29c0.61,0,1.16,0.1,1.64,0.3c0.48,0.2,0.89,0.48,1.23,0.86s0.6,0.83,0.78,1.36
		c0.18,0.53,0.27,1.13,0.27,1.79v0.46c0,0.12-0.04,0.23-0.14,0.32s-0.2,0.14-0.32,0.14H93.5v0.1c0.02,0.77,0.26,1.36,0.71,1.78
		c0.45,0.41,1.01,0.62,1.67,0.62c0.62,0,1.09-0.09,1.4-0.26c0.31-0.18,0.56-0.37,0.76-0.59c0.09-0.09,0.17-0.15,0.24-0.19
		c0.07-0.03,0.17-0.05,0.31-0.05h0.51c0.12,0,0.24,0.05,0.34,0.14c0.1,0.09,0.14,0.2,0.12,0.32c-0.03,0.2-0.13,0.43-0.29,0.67
		c-0.16,0.24-0.39,0.47-0.69,0.68c-0.3,0.21-0.67,0.39-1.12,0.53c-0.45,0.14-0.97,0.21-1.57,0.21c-0.57,0-1.08-0.1-1.53-0.3
		s-0.85-0.47-1.18-0.82c-0.33-0.35-0.6-0.75-0.81-1.22c-0.2-0.47-0.33-0.98-0.37-1.54C91.93,245.35,91.93,244.83,91.99,244.31z
		 M93.5,244.36h4.78v-0.05c0-0.69-0.22-1.24-0.66-1.66c-0.44-0.41-1.02-0.62-1.74-0.62c-0.33,0-0.63,0.05-0.92,0.16
		c-0.28,0.11-0.53,0.26-0.75,0.46c-0.22,0.2-0.39,0.44-0.51,0.72c-0.12,0.28-0.19,0.6-0.2,0.94V244.36z"/>
	<path class="st1" d="M106.56,247.13c0-0.21-0.06-0.39-0.18-0.54s-0.3-0.26-0.54-0.37c-0.24-0.1-0.54-0.2-0.91-0.29
		c-0.37-0.09-0.8-0.19-1.28-0.29c-0.92-0.19-1.56-0.51-1.93-0.96c-0.37-0.45-0.55-0.97-0.55-1.57c0-0.34,0.07-0.66,0.2-0.97
		c0.14-0.31,0.34-0.58,0.61-0.82c0.27-0.24,0.61-0.42,1.03-0.56c0.41-0.14,0.9-0.2,1.45-0.2c0.56,0,1.04,0.06,1.45,0.19
		c0.41,0.12,0.76,0.28,1.04,0.48c0.28,0.19,0.5,0.4,0.65,0.62c0.15,0.22,0.23,0.43,0.24,0.64c0.01,0.12-0.03,0.23-0.13,0.32
		c-0.1,0.09-0.21,0.14-0.33,0.14h-0.56c-0.07,0-0.15-0.01-0.25-0.04c-0.1-0.03-0.18-0.09-0.26-0.2c-0.15-0.19-0.37-0.35-0.65-0.48
		c-0.29-0.13-0.69-0.2-1.2-0.2c-0.52,0-0.94,0.1-1.27,0.29c-0.32,0.19-0.49,0.46-0.49,0.8c0,0.22,0.05,0.39,0.14,0.52
		c0.09,0.13,0.24,0.24,0.44,0.34c0.2,0.1,0.47,0.18,0.81,0.26s0.75,0.18,1.25,0.29c0.52,0.11,0.96,0.26,1.31,0.43
		c0.35,0.18,0.63,0.37,0.85,0.6c0.22,0.22,0.37,0.46,0.46,0.73c0.09,0.27,0.14,0.55,0.14,0.84c0,0.34-0.08,0.67-0.25,0.99
		s-0.4,0.59-0.71,0.83c-0.31,0.24-0.68,0.43-1.11,0.58c-0.44,0.15-0.93,0.22-1.49,0.22c-0.55,0-1.05-0.07-1.48-0.2
		c-0.43-0.14-0.8-0.3-1.11-0.5c-0.31-0.2-0.54-0.41-0.71-0.65c-0.16-0.23-0.25-0.45-0.26-0.65c-0.01-0.12,0.03-0.23,0.12-0.32
		c0.09-0.09,0.2-0.14,0.34-0.14h0.61c0.07,0,0.15,0.01,0.24,0.03c0.09,0.02,0.17,0.08,0.25,0.2c0.18,0.25,0.43,0.44,0.75,0.58
		c0.32,0.14,0.73,0.2,1.24,0.2c0.25,0,0.5-0.03,0.74-0.08c0.24-0.06,0.46-0.14,0.65-0.24c0.19-0.1,0.34-0.22,0.45-0.37
		C106.5,247.46,106.56,247.3,106.56,247.13z"/>
	<path class="st1" d="M112.1,246.6c0,0.22,0.02,0.42,0.06,0.6c0.04,0.19,0.11,0.35,0.21,0.48c0.1,0.14,0.25,0.24,0.43,0.31
		c0.19,0.07,0.43,0.11,0.72,0.11h0.9c0.12,0,0.23,0.05,0.32,0.14c0.09,0.09,0.14,0.2,0.14,0.32v0.54c0,0.12-0.05,0.23-0.14,0.32
		c-0.09,0.09-0.2,0.14-0.32,0.14h-1.07c-0.99,0-1.7-0.25-2.14-0.77c-0.44-0.51-0.66-1.25-0.66-2.21v-4.4h-1.26
		c-0.12,0-0.23-0.05-0.32-0.14c-0.09-0.09-0.14-0.2-0.14-0.32v-0.54c0-0.12,0.04-0.23,0.14-0.32c0.09-0.09,0.2-0.14,0.32-0.14h1.26
		v-2.77c0-0.12,0.04-0.23,0.14-0.32c0.09-0.09,0.2-0.14,0.32-0.14h0.63c0.12,0,0.23,0.05,0.32,0.14c0.09,0.09,0.14,0.2,0.14,0.32
		v2.77h2.16c0.12,0,0.23,0.05,0.32,0.14c0.09,0.09,0.14,0.2,0.14,0.32v0.54c0,0.12-0.05,0.23-0.14,0.32
		c-0.09,0.09-0.2,0.14-0.32,0.14h-2.16V246.6z"/>
	<path class="st1" d="M119.97,241.2c0-0.12,0.05-0.23,0.14-0.32c0.09-0.09,0.2-0.14,0.32-0.14h0.63c0.12,0,0.23,0.05,0.32,0.14
		c0.09,0.09,0.14,0.2,0.14,0.32v4.49c0,0.87,0.2,1.52,0.59,1.96s0.96,0.65,1.71,0.65c0.71,0,1.27-0.22,1.68-0.65
		s0.61-1.08,0.61-1.96v-4.49c0-0.12,0.04-0.23,0.14-0.32c0.09-0.09,0.2-0.14,0.32-0.14h0.63c0.12,0,0.23,0.05,0.32,0.14
		c0.09,0.09,0.14,0.2,0.14,0.32v7.92c0,0.12-0.05,0.23-0.14,0.32c-0.09,0.09-0.2,0.14-0.32,0.14h-0.63c-0.12,0-0.23-0.04-0.32-0.14
		c-0.09-0.09-0.14-0.2-0.14-0.32v-0.53c-0.22,0.28-0.52,0.55-0.92,0.79c-0.4,0.24-0.94,0.37-1.63,0.37c-0.53,0-1.02-0.09-1.46-0.26
		c-0.44-0.18-0.82-0.43-1.14-0.75c-0.32-0.32-0.56-0.72-0.73-1.19c-0.17-0.47-0.25-1.01-0.25-1.61V241.2z"/>
	<path class="st1" d="M137.72,249.12c0,0.12-0.05,0.23-0.14,0.32c-0.09,0.09-0.2,0.14-0.32,0.14h-0.63c-0.12,0-0.23-0.04-0.32-0.14
		c-0.09-0.09-0.14-0.2-0.14-0.32v-4.49c0-0.87-0.21-1.52-0.63-1.96c-0.42-0.43-1-0.65-1.75-0.65c-0.71,0-1.29,0.22-1.73,0.65
		c-0.44,0.43-0.66,1.08-0.66,1.96v4.49c0,0.12-0.04,0.23-0.14,0.32c-0.09,0.09-0.2,0.14-0.32,0.14h-0.63
		c-0.12,0-0.23-0.04-0.32-0.14c-0.09-0.09-0.14-0.2-0.14-0.32v-7.92c0-0.12,0.05-0.23,0.14-0.32c0.09-0.09,0.2-0.14,0.32-0.14h0.63
		c0.12,0,0.23,0.05,0.32,0.14c0.09,0.09,0.14,0.2,0.14,0.32v0.53c0.22-0.28,0.54-0.55,0.96-0.79s0.98-0.37,1.67-0.37
		c0.53,0,1.03,0.09,1.48,0.26c0.45,0.18,0.84,0.43,1.17,0.75c0.32,0.32,0.58,0.72,0.76,1.2c0.18,0.48,0.27,1.01,0.27,1.6V249.12z"/>
	<path class="st1" d="M147.83,240.57c0.53,0,1.03,0.09,1.49,0.28s0.86,0.45,1.2,0.8c0.34,0.35,0.61,0.77,0.82,1.27
		c0.2,0.5,0.32,1.06,0.36,1.68c0.01,0.17,0.02,0.35,0.02,0.55c0,0.2-0.01,0.38-0.02,0.55c-0.03,0.62-0.15,1.18-0.36,1.68
		s-0.48,0.92-0.82,1.27c-0.34,0.35-0.74,0.62-1.2,0.81s-0.96,0.28-1.49,0.28c-0.69,0-1.25-0.12-1.67-0.35
		c-0.42-0.23-0.74-0.5-0.97-0.81v0.53c0,0.12-0.04,0.23-0.14,0.32c-0.09,0.09-0.2,0.14-0.32,0.14h-0.63c-0.12,0-0.23-0.04-0.32-0.14
		c-0.09-0.09-0.14-0.2-0.14-0.32v-11.15c0-0.12,0.05-0.23,0.14-0.32c0.09-0.09,0.2-0.14,0.32-0.14h0.63c0.12,0,0.23,0.05,0.32,0.14
		c0.09,0.09,0.14,0.2,0.14,0.32v3.76c0.22-0.28,0.53-0.55,0.95-0.79C146.57,240.69,147.13,240.57,147.83,240.57z M145.2,245.89
		c0.06,0.74,0.31,1.32,0.75,1.75c0.44,0.43,1.01,0.65,1.72,0.65c0.75,0,1.33-0.24,1.76-0.71c0.43-0.48,0.67-1.12,0.72-1.94
		c0.01-0.32,0.01-0.63,0-0.95c-0.06-0.82-0.3-1.46-0.72-1.94c-0.42-0.48-1.01-0.71-1.76-0.71c-0.71,0-1.29,0.22-1.72,0.65
		c-0.43,0.44-0.68,1.06-0.75,1.86c-0.02,0.17-0.03,0.39-0.03,0.67S145.18,245.72,145.2,245.89z"/>
	<path class="st1" d="M153.07,244.31c0.04-0.52,0.17-1.01,0.37-1.46c0.2-0.45,0.47-0.85,0.8-1.19c0.33-0.34,0.72-0.61,1.18-0.8
		c0.46-0.19,0.97-0.29,1.54-0.29c0.61,0,1.16,0.1,1.64,0.3c0.48,0.2,0.89,0.48,1.23,0.86s0.6,0.83,0.78,1.36
		c0.18,0.53,0.27,1.13,0.27,1.79v0.46c0,0.12-0.04,0.23-0.13,0.32c-0.09,0.09-0.2,0.14-0.32,0.14h-5.85v0.1
		c0.02,0.77,0.26,1.36,0.71,1.78c0.45,0.41,1,0.62,1.67,0.62c0.62,0,1.09-0.09,1.4-0.26c0.31-0.18,0.56-0.37,0.76-0.59
		c0.09-0.09,0.17-0.15,0.24-0.19c0.07-0.03,0.17-0.05,0.31-0.05h0.51c0.12,0,0.24,0.05,0.34,0.14c0.1,0.09,0.14,0.2,0.12,0.32
		c-0.03,0.2-0.13,0.43-0.29,0.67s-0.39,0.47-0.69,0.68c-0.3,0.21-0.67,0.39-1.12,0.53s-0.97,0.21-1.57,0.21
		c-0.57,0-1.08-0.1-1.53-0.3c-0.46-0.2-0.85-0.47-1.18-0.82c-0.34-0.35-0.6-0.75-0.81-1.22c-0.2-0.47-0.33-0.98-0.37-1.54
		C153.01,245.35,153.01,244.83,153.07,244.31z M154.58,244.36h4.78v-0.05c0-0.69-0.22-1.24-0.65-1.66
		c-0.44-0.41-1.02-0.62-1.74-0.62c-0.33,0-0.63,0.05-0.92,0.16c-0.28,0.11-0.53,0.26-0.75,0.46c-0.21,0.2-0.38,0.44-0.51,0.72
		c-0.12,0.28-0.19,0.6-0.21,0.94V244.36z"/>
	<path class="st1" d="M161.98,247.35c0-0.45,0.09-0.85,0.27-1.19s0.43-0.63,0.75-0.87c0.32-0.24,0.69-0.43,1.11-0.58
		s0.88-0.26,1.35-0.34l2.4-0.39v-0.22c0-0.58-0.19-1.01-0.57-1.3c-0.38-0.29-0.85-0.43-1.42-0.43c-0.5,0-0.88,0.09-1.13,0.27
		s-0.47,0.4-0.65,0.65c-0.07,0.09-0.14,0.15-0.22,0.19c-0.08,0.03-0.19,0.05-0.32,0.05h-0.51c-0.12,0-0.24-0.04-0.33-0.14
		c-0.1-0.09-0.14-0.2-0.13-0.32c0.02-0.25,0.12-0.5,0.3-0.77c0.18-0.26,0.41-0.49,0.71-0.7c0.3-0.2,0.65-0.37,1.04-0.5
		c0.39-0.13,0.81-0.2,1.25-0.2c0.51,0,0.98,0.07,1.42,0.22c0.44,0.15,0.81,0.36,1.12,0.65c0.31,0.28,0.56,0.63,0.73,1.05
		s0.26,0.9,0.26,1.44v5.19c0,0.12-0.05,0.23-0.14,0.32c-0.09,0.09-0.2,0.14-0.32,0.14h-0.63c-0.12,0-0.23-0.04-0.32-0.14
		c-0.09-0.09-0.14-0.2-0.14-0.32v-0.7c-0.1,0.22-0.26,0.41-0.48,0.57c-0.21,0.16-0.46,0.3-0.74,0.42c-0.28,0.11-0.57,0.2-0.87,0.25
		c-0.3,0.06-0.58,0.08-0.84,0.08c-0.44,0-0.85-0.06-1.21-0.19s-0.68-0.29-0.94-0.5c-0.25-0.21-0.45-0.46-0.59-0.76
		C162.05,248.01,161.98,247.69,161.98,247.35z M165.11,248.29c0.41,0,0.78-0.06,1.12-0.19c0.34-0.12,0.63-0.3,0.88-0.52
		c0.24-0.22,0.43-0.48,0.56-0.79c0.13-0.31,0.2-0.65,0.2-1.02v-0.42l-2.01,0.32c-0.71,0.11-1.28,0.29-1.7,0.54
		c-0.42,0.25-0.63,0.57-0.63,0.97c0,0.12,0.03,0.25,0.08,0.37c0.06,0.12,0.15,0.24,0.27,0.36s0.29,0.2,0.48,0.27
		S164.81,248.29,165.11,248.29z"/>
	<path class="st1" d="M171.46,241.2c0-0.12,0.04-0.23,0.14-0.32c0.09-0.09,0.2-0.14,0.32-0.14h0.63c0.12,0,0.23,0.05,0.32,0.14
		c0.09,0.09,0.14,0.2,0.14,0.32v4.49c0,0.87,0.2,1.52,0.59,1.96c0.39,0.43,0.96,0.65,1.71,0.65c0.71,0,1.27-0.22,1.68-0.65
		s0.61-1.08,0.61-1.96v-4.49c0-0.12,0.04-0.23,0.14-0.32c0.09-0.09,0.2-0.14,0.32-0.14h0.63c0.12,0,0.23,0.05,0.32,0.14
		c0.09,0.09,0.14,0.2,0.14,0.32v7.92c0,0.12-0.05,0.23-0.14,0.32c-0.09,0.09-0.2,0.14-0.32,0.14h-0.63c-0.12,0-0.23-0.04-0.32-0.14
		c-0.09-0.09-0.14-0.2-0.14-0.32v-0.53c-0.22,0.28-0.52,0.55-0.92,0.79c-0.4,0.24-0.94,0.37-1.63,0.37c-0.53,0-1.02-0.09-1.46-0.26
		c-0.44-0.18-0.82-0.43-1.14-0.75c-0.32-0.32-0.56-0.72-0.73-1.19c-0.17-0.47-0.25-1.01-0.25-1.61V241.2z"/>
	<path class="st1" d="M186.71,241.72c0.1-0.14,0.22-0.27,0.36-0.42c0.14-0.14,0.29-0.27,0.47-0.37c0.18-0.11,0.38-0.2,0.62-0.26
		c0.24-0.07,0.52-0.1,0.83-0.1c0.69,0,1.26,0.13,1.72,0.38c0.45,0.25,0.81,0.62,1.07,1.1c0.15-0.2,0.3-0.4,0.47-0.58
		s0.36-0.34,0.58-0.48c0.22-0.14,0.47-0.24,0.75-0.31c0.28-0.07,0.6-0.11,0.98-0.11c1.14,0,1.98,0.34,2.5,1.03
		c0.52,0.69,0.78,1.62,0.78,2.81v4.71c0,0.12-0.05,0.23-0.14,0.32c-0.09,0.09-0.2,0.14-0.32,0.14h-0.63c-0.12,0-0.23-0.04-0.32-0.14
		c-0.09-0.09-0.14-0.2-0.14-0.32v-4.54c0-0.87-0.17-1.52-0.51-1.93c-0.34-0.41-0.84-0.62-1.5-0.62c-0.6,0-1.08,0.2-1.45,0.59
		c-0.37,0.4-0.55,1.01-0.55,1.84v4.66c0,0.12-0.04,0.23-0.14,0.32c-0.09,0.09-0.2,0.14-0.32,0.14h-0.63c-0.12,0-0.23-0.04-0.32-0.14
		c-0.09-0.09-0.14-0.2-0.14-0.32v-4.54c0-0.87-0.17-1.52-0.51-1.93c-0.34-0.41-0.84-0.62-1.5-0.62c-0.6,0-1.09,0.2-1.45,0.59
		c-0.37,0.4-0.55,1.01-0.55,1.84v4.66c0,0.12-0.05,0.23-0.14,0.32c-0.09,0.09-0.2,0.14-0.32,0.14h-0.63c-0.12,0-0.23-0.04-0.32-0.14
		c-0.09-0.09-0.14-0.2-0.14-0.32v-7.92c0-0.12,0.04-0.23,0.14-0.32c0.09-0.09,0.2-0.14,0.32-0.14h0.63c0.12,0,0.23,0.05,0.32,0.14
		c0.09,0.09,0.14,0.2,0.14,0.32V241.72z"/>
	<path class="st1" d="M199.55,244.31c0.04-0.52,0.17-1.01,0.37-1.46s0.47-0.85,0.8-1.19c0.33-0.34,0.72-0.61,1.18-0.8
		c0.46-0.19,0.97-0.29,1.54-0.29c0.61,0,1.16,0.1,1.64,0.3s0.89,0.48,1.23,0.86s0.6,0.83,0.78,1.36c0.18,0.53,0.27,1.13,0.27,1.79
		v0.46c0,0.12-0.04,0.23-0.14,0.32s-0.2,0.14-0.32,0.14h-5.85v0.1c0.02,0.77,0.26,1.36,0.71,1.78c0.45,0.41,1,0.62,1.67,0.62
		c0.62,0,1.09-0.09,1.4-0.26c0.31-0.18,0.56-0.37,0.76-0.59c0.09-0.09,0.17-0.15,0.24-0.19c0.07-0.03,0.17-0.05,0.31-0.05h0.51
		c0.12,0,0.24,0.05,0.34,0.14c0.1,0.09,0.14,0.2,0.12,0.32c-0.03,0.2-0.13,0.43-0.29,0.67c-0.16,0.24-0.39,0.47-0.69,0.68
		c-0.3,0.21-0.67,0.39-1.12,0.53c-0.45,0.14-0.97,0.21-1.57,0.21c-0.57,0-1.08-0.1-1.53-0.3c-0.45-0.2-0.85-0.47-1.18-0.82
		c-0.33-0.35-0.6-0.75-0.81-1.22s-0.33-0.98-0.37-1.54C199.49,245.35,199.49,244.83,199.55,244.31z M201.06,244.36h4.78v-0.05
		c0-0.69-0.22-1.24-0.65-1.66c-0.44-0.41-1.02-0.62-1.74-0.62c-0.33,0-0.63,0.05-0.92,0.16c-0.28,0.11-0.53,0.26-0.75,0.46
		c-0.21,0.2-0.38,0.44-0.51,0.72c-0.12,0.28-0.19,0.6-0.2,0.94V244.36z M203.97,237.41c0.12-0.15,0.23-0.24,0.31-0.27
		c0.08-0.03,0.19-0.05,0.31-0.05h1.26c0.21,0,0.32,0.11,0.32,0.34c0,0.08-0.03,0.15-0.08,0.2l-1.89,1.55
		c-0.09,0.08-0.19,0.15-0.29,0.2c-0.1,0.06-0.24,0.08-0.43,0.08h-0.63c-0.18,0-0.27-0.09-0.27-0.27c0-0.09,0.03-0.16,0.08-0.22
		L203.97,237.41z"/>
	<path class="st1" d="M211.33,246.6c0,0.22,0.02,0.42,0.06,0.6s0.11,0.35,0.21,0.48c0.1,0.14,0.25,0.24,0.43,0.31
		c0.19,0.07,0.43,0.11,0.72,0.11h0.9c0.12,0,0.23,0.05,0.32,0.14c0.09,0.09,0.14,0.2,0.14,0.32v0.54c0,0.12-0.05,0.23-0.14,0.32
		c-0.09,0.09-0.2,0.14-0.32,0.14h-1.07c-0.99,0-1.7-0.25-2.14-0.77c-0.44-0.51-0.66-1.25-0.66-2.21v-4.4h-1.26
		c-0.12,0-0.23-0.05-0.32-0.14c-0.09-0.09-0.14-0.2-0.14-0.32v-0.54c0-0.12,0.04-0.23,0.14-0.32c0.09-0.09,0.2-0.14,0.32-0.14h1.26
		v-2.77c0-0.12,0.04-0.23,0.14-0.32c0.09-0.09,0.2-0.14,0.32-0.14h0.63c0.12,0,0.23,0.05,0.32,0.14c0.09,0.09,0.14,0.2,0.14,0.32
		v2.77h2.16c0.12,0,0.23,0.05,0.32,0.14c0.09,0.09,0.14,0.2,0.14,0.32v0.54c0,0.12-0.05,0.23-0.14,0.32
		c-0.09,0.09-0.2,0.14-0.32,0.14h-2.16V246.6z"/>
	<path class="st1" d="M217.19,238.94c0,0.12-0.05,0.23-0.14,0.32c-0.09,0.09-0.2,0.14-0.32,0.14h-0.97c-0.12,0-0.23-0.04-0.32-0.14
		s-0.14-0.2-0.14-0.32v-0.97c0-0.12,0.04-0.23,0.14-0.32c0.09-0.09,0.2-0.14,0.32-0.14h0.97c0.12,0,0.23,0.05,0.32,0.14
		c0.09,0.09,0.14,0.2,0.14,0.32V238.94z M217.02,249.12c0,0.12-0.05,0.23-0.14,0.32c-0.09,0.09-0.2,0.14-0.32,0.14h-0.63
		c-0.12,0-0.23-0.04-0.32-0.14c-0.09-0.09-0.14-0.2-0.14-0.32v-7.92c0-0.12,0.04-0.23,0.14-0.32c0.09-0.09,0.2-0.14,0.32-0.14h0.63
		c0.12,0,0.23,0.05,0.32,0.14c0.09,0.09,0.14,0.2,0.14,0.32V249.12z"/>
	<path class="st1" d="M218.83,244.31c0.04-0.52,0.17-1.01,0.37-1.46s0.47-0.85,0.8-1.19c0.33-0.34,0.72-0.61,1.18-0.8
		c0.46-0.19,0.97-0.29,1.54-0.29c0.61,0,1.16,0.1,1.64,0.3s0.89,0.48,1.23,0.86s0.6,0.83,0.78,1.36c0.18,0.53,0.27,1.13,0.27,1.79
		v0.46c0,0.12-0.04,0.23-0.14,0.32s-0.2,0.14-0.32,0.14h-5.85v0.1c0.02,0.77,0.26,1.36,0.71,1.78c0.45,0.41,1,0.62,1.67,0.62
		c0.62,0,1.09-0.09,1.4-0.26c0.31-0.18,0.56-0.37,0.76-0.59c0.09-0.09,0.17-0.15,0.24-0.19c0.07-0.03,0.17-0.05,0.31-0.05h0.51
		c0.12,0,0.24,0.05,0.34,0.14c0.1,0.09,0.14,0.2,0.12,0.32c-0.03,0.2-0.13,0.43-0.29,0.67c-0.16,0.24-0.39,0.47-0.69,0.68
		c-0.3,0.21-0.67,0.39-1.12,0.53c-0.45,0.14-0.97,0.21-1.57,0.21c-0.57,0-1.08-0.1-1.53-0.3c-0.45-0.2-0.85-0.47-1.18-0.82
		c-0.33-0.35-0.6-0.75-0.81-1.22s-0.33-0.98-0.37-1.54C218.77,245.35,218.77,244.83,218.83,244.31z M220.34,244.36h4.78v-0.05
		c0-0.69-0.22-1.24-0.65-1.66c-0.44-0.41-1.02-0.62-1.74-0.62c-0.33,0-0.63,0.05-0.92,0.16c-0.28,0.11-0.53,0.26-0.75,0.46
		c-0.21,0.2-0.38,0.44-0.51,0.72c-0.12,0.28-0.19,0.6-0.2,0.94V244.36z"/>
	<path class="st1" d="M232.85,240.74c0.12,0,0.23,0.05,0.32,0.14c0.09,0.09,0.14,0.2,0.14,0.32v0.54c0,0.12-0.04,0.23-0.14,0.32
		c-0.09,0.09-0.2,0.14-0.32,0.14h-0.99c-1.3,0-1.96,0.65-1.96,1.96v4.96c0,0.12-0.05,0.23-0.14,0.32c-0.09,0.09-0.2,0.14-0.32,0.14
		h-0.63c-0.12,0-0.23-0.04-0.32-0.14c-0.09-0.09-0.14-0.2-0.14-0.32v-7.92c0-0.12,0.04-0.23,0.14-0.32c0.09-0.09,0.2-0.14,0.32-0.14
		h0.63c0.12,0,0.23,0.05,0.32,0.14c0.09,0.09,0.14,0.2,0.14,0.32v0.53c0.23-0.34,0.5-0.59,0.82-0.75s0.73-0.24,1.24-0.24H232.85z"/>
</g>
<g>
	<path class="st1" d="M70.77,196.01l16.36-25.57c0.23-0.26,0.62-0.67,1.16-1.24c0.54-0.57,1.39-0.85,2.54-0.85h5.85
		c0.63,0,1.18,0.21,1.64,0.62c0.46,0.41,0.69,0.9,0.69,1.47v50.06c0,0.57-0.23,1.06-0.69,1.47c-0.46,0.41-1,0.62-1.64,0.62h-6.97
		c-0.63,0-1.18-0.21-1.64-0.62c-0.46-0.41-0.69-0.9-0.69-1.47v-30.3L76.2,207.64c-0.29,0.41-0.69,0.84-1.21,1.28
		c-0.52,0.44-1.18,0.66-1.98,0.66h-4.48c-0.8,0-1.46-0.22-1.98-0.66c-0.52-0.44-0.92-0.86-1.21-1.28L54.15,190.2v30.3
		c0,0.57-0.23,1.06-0.69,1.47c-0.46,0.41-1,0.62-1.64,0.62h-6.97c-0.63,0-1.18-0.21-1.64-0.62c-0.46-0.41-0.69-0.9-0.69-1.47v-50.06
		c0-0.57,0.23-1.06,0.69-1.47c0.46-0.41,1-0.62,1.64-0.62h5.85c1.15,0,1.99,0.28,2.54,0.85c0.54,0.57,0.93,0.98,1.16,1.24
		L70.77,196.01z"/>
	<path class="st1" d="M151.53,222.59c-0.98,0-1.72-0.23-2.24-0.7s-0.89-0.83-1.12-1.08l-24.11-32.24v31.93
		c0,0.57-0.23,1.06-0.69,1.47c-0.46,0.41-1,0.62-1.64,0.62h-6.97c-0.63,0-1.18-0.21-1.64-0.62c-0.46-0.41-0.69-0.9-0.69-1.47v-50.06
		c0-0.57,0.23-1.06,0.69-1.47c0.46-0.41,1-0.62,1.64-0.62h6.03c0.98,0,1.72,0.23,2.24,0.7s0.89,0.83,1.12,1.08l24.11,32.23v-31.92
		c0-0.57,0.23-1.06,0.69-1.47c0.46-0.41,1-0.62,1.64-0.62h6.97c0.63,0,1.18,0.21,1.64,0.62c0.46,0.41,0.69,0.9,0.69,1.47v50.06
		c0,0.57-0.23,1.06-0.69,1.47c-0.46,0.41-1,0.62-1.64,0.62H151.53z"/>
	<path class="st1" d="M213.43,168.35c0.63,0,1.18,0.21,1.64,0.62c0.46,0.41,0.69,0.9,0.69,1.47v5.5c0,0.57-0.23,1.06-0.69,1.47
		c-0.46,0.41-1,0.62-1.64,0.62h-15.5v42.46c0,0.57-0.23,1.06-0.69,1.47c-0.46,0.41-1,0.62-1.64,0.62h-6.97
		c-0.63,0-1.18-0.21-1.64-0.62c-0.46-0.41-0.69-0.9-0.69-1.47v-42.46h-15.5c-0.63,0-1.18-0.21-1.64-0.62
		c-0.46-0.41-0.69-0.9-0.69-1.47v-5.5c0-0.57,0.23-1.06,0.69-1.47c0.46-0.41,1-0.62,1.64-0.62H213.43z"/>
</g>
<g>
	<g>
		<defs>
			<path id="SVGID_1_" d="M97.82,43.28l-54.93,82c-0.45,0.67-0.36,1.55,0.21,2.12l16.53,16.53c0.66,0.66,1.74,0.65,2.39-0.02
				l67.87-69.71c0.65-0.66,0.63-1.72-0.03-2.37l-29.47-28.81C99.63,42.28,98.4,42.4,97.82,43.28z"/>
		</defs>
		<clipPath id="SVGID_2_">
			<use xlink:href="#SVGID_1_"  style="overflow:visible;"/>
		</clipPath>
		<g class="st2">
			<path class="st1" d="M97.82,43.28l-54.93,82c-0.45,0.67-0.36,1.55,0.21,2.12l16.53,16.53c0.66,0.66,1.74,0.65,2.39-0.02
				l67.87-69.71c0.65-0.66,0.63-1.72-0.03-2.37l-29.47-28.81C99.63,42.28,98.4,42.4,97.82,43.28z"/>
			
				<linearGradient id="SVGID_3_" gradientUnits="userSpaceOnUse" x1="79.8454" y1="113.9248" x2="153.4072" y2="37.3605" gradientTransform="matrix(0.9995 0.0302 -0.0302 0.9995 -1.4089 21.9068)">
				<stop  offset="0" style="stop-color:#1D1D1B;stop-opacity:0"/>
				<stop  offset="1" style="stop-color:#101820"/>
			</linearGradient>
			<path class="st3" d="M139.66,66.3l-78.88,54.09c-1.05,0.81-1.15,2.33-0.22,3.28l28.72,29.04c0.91,0.92,2.41,0.89,3.29-0.05
				l63.99-69.23c0.79-0.86,0.78-2.16-0.03-3L141.2,64.5C140.4,63.67,140.57,65.6,139.66,66.3z"/>
		</g>
	</g>
	<g>
		<defs>
			<path id="SVGID_4_" d="M186.29,60.73l-66.89,66.71c-0.9,0.89-0.91,2.34-0.04,3.26l14.91,15.54c0.79,0.83,2.07,0.95,3.01,0.3
				l78.85-54.82c1.18-0.82,1.34-2.51,0.33-3.54L189.6,60.75C188.69,59.82,187.21,59.81,186.29,60.73z"/>
		</defs>
		<clipPath id="SVGID_5_">
			<use xlink:href="#SVGID_4_"  style="overflow:visible;"/>
		</clipPath>
		<g class="st4">
			<path class="st5" d="M186.29,60.73l-66.89,66.71c-0.9,0.89-0.91,2.34-0.04,3.26l14.91,15.54c0.79,0.83,2.07,0.95,3.01,0.3
				l78.85-54.82c1.18-0.82,1.34-2.51,0.33-3.54L189.6,60.75C188.69,59.82,187.21,59.81,186.29,60.73z"/>
			<linearGradient id="SVGID_6_" gradientUnits="userSpaceOnUse" x1="113.4384" y1="126.5658" x2="158.2217" y2="80.0089">
				<stop  offset="0" style="stop-color:#1D1D1B;stop-opacity:0"/>
				<stop  offset="1" style="stop-color:#000000"/>
			</linearGradient>
			<path class="st6" d="M144.72,65.72l-40.2,50.5c1.6,1.48,23.54,23.48,23.54,23.48l36.82-57.23L144.72,65.72
				C144.73,65.72,144.72,65.72,144.72,65.72z"/>
		</g>
	</g>
	<path class="st7" d="M146.22,62.71l-73.43,61.66c-1.02,0.86-1.08,2.41-0.12,3.34l27.36,26.55c0.93,0.91,2.44,0.84,3.28-0.15
		l61.87-72.47c0.76-0.9,0.71-2.23-0.12-3.06l-15.79-15.74C148.43,62.02,147.11,61.96,146.22,62.71z"/>
</g>
<rect x="215.76" y="166.98" transform="matrix(-1 -1.224647e-16 1.224647e-16 -1 474.0501 347.9243)" class="st8" width="42.53" height="13.97"/>
<rect x="102.45" y="311.09" transform="matrix(-1.836970e-16 1 -1 -1.836970e-16 441.7896 194.3555)" class="st8" width="42.53" height="13.97"/>
<rect x="78.54" y="14.28" transform="matrix(-1.836970e-16 1 -1 -1.836970e-16 121.0758 -78.5442)" class="st8" width="42.53" height="13.97"/>
<rect y="190.51" transform="matrix(-1 -1.224647e-16 1.224647e-16 -1 42.5317 394.9956)" class="st8" width="42.53" height="13.97"/>
<rect class="st8" width="258.29" height="339.34"/>
</svg>
