<svg
  width="58"
  height="16"
  xmlns="http://www.w3.org/2000/svg"
  xmlns:xlink="http://www.w3.org/1999/xlink"
  xml:space="preserve"
  overflow="hidden"
>
  <defs>
    <clipPath id="clip0"><rect x="0" y="0" width="58" height="16" /></clipPath>
  </defs>
  <g clip-path="url(#clip0)">
    <path
      d="M52.5867 0.0166827C52.5318-0.00375361 50.8041 0.000333655 50.8041 0.000333655L50.8041 4.17345C50.6228 4.0508 50.4333 3.94454 50.2226 3.85463 49.7505 3.64618 49.2362 3.54399 48.6717 3.54399 48.094 3.54399 47.5716 3.64618 47.108 3.85463 46.6444 4.06309 46.2442 4.34103 45.907 4.69661 45.5698 5.05219 45.3084 5.47729 45.1271 5.97183 44.9461 6.46638 44.8533 7.00184 44.8533 7.58222 44.8533 8.15851 44.9461 8.69397 45.1271 9.18036 45.3084 9.6708 45.5698 10.0918 45.907 10.4474 46.2442 10.803 46.6444 11.085 47.108 11.2894 47.5716 11.4978 48.0901 11.6 48.6717 11.6 49.2362 11.6 49.7505 11.5019 50.2226 11.3016 50.6943 11.1055 51.0949 10.8316 51.4236 10.4842 51.7522 10.1368 52.0136 9.71577 52.2031 9.21713 52.2286 9.14764 52.2537 9.07816 52.2789 9.00458 52.4815 8.4528 52.5867 7.80703 52.5867 7.06722L52.5867 0.0166827ZM50.7871 8.55906C50.6734 8.85745 50.5172 9.10677 50.3193 9.31523 50.1213 9.52368 49.8812 9.68716 49.5985 9.80567 49.3162 9.92422 49.0088 9.98551 48.6717 9.98551 48.326 9.98551 48.0139 9.92422 47.7359 9.80161 47.4579 9.679 47.2174 9.51142 47.0152 9.29887 46.813 9.08632 46.6571 8.83294 46.5473 8.54274 46.4379 8.25251 46.383 7.9337 46.383 7.58628 46.383 7.2389 46.4379 6.9201 46.5473 6.62171 46.6571 6.32335 46.813 6.06993 47.0152 5.85738 47.2174 5.64487 47.4579 5.47729 47.7359 5.35464 48.0139 5.23203 48.326 5.17074 48.6717 5.17074 49.0088 5.17074 49.3162 5.23203 49.5985 5.35464 49.8812 5.47729 50.1213 5.64893 50.3193 5.86558 50.5172 6.08219 50.6734 6.33967 50.7871 6.63806 50.9008 6.93641 50.96 7.25116 50.96 7.58628 50.96 7.9378 50.9008 8.26071 50.7871 8.55906Z"
      fill="#3F4D66"
      fill-rule="evenodd"
      fill-opacity="1"
      transform="matrix(1 0 0 1.00925 0.773333 0)"
    />
    <path
      d="M0.0345156 3.52296C0.0345156 2.97733 0.133748 2.48755 0.332213 2.05792 0.530677 1.6283 0.802488 1.26311 1.14765 0.962371 1.4928 0.661629 1.90699 0.433925 2.38158 0.274963 2.85617 0.116 3.37822 0.0386667 3.94342 0.0386667 4.50861 0.0386667 5.03065 0.116 5.51387 0.274963 5.99279 0.433925 6.40695 0.661629 6.75213 0.962371 7.09727 1.26311 7.36909 1.6283 7.56324 2.05792 7.75309 2.48755 7.85231 2.97733 7.85231 3.52296L7.85231 8.48088 6.02728 8.48088 6.02728 3.99554C6.02728 3.2523 5.85038 2.68948 5.49662 2.30282 5.14282 1.91615 4.62511 1.72282 3.94342 1.72282 3.24878 1.72282 2.72673 1.91615 2.38158 2.30282 2.03211 2.68948 1.85953 3.25659 1.85953 3.99554L1.85953 8.47658 0.0345156 8.47658 0.0345156 3.52296Z"
      fill="#3F4D66"
      fill-rule="evenodd"
      fill-opacity="1"
      transform="matrix(1 0 0 1.00925 37.12 3.12195)"
    />
    <path
      d="M0.0380328 0.0210145 1.82557 0.0210145 1.82557 3.84985C1.82557 4.57697 1.99461 5.12755 2.33691 5.50579 2.67497 5.88406 3.1863 6.07318 3.86667 6.07318 4.53436 6.07318 5.04148 5.88406 5.38797 5.50579 5.7345 5.12755 5.90776 4.57276 5.90776 3.84985L5.90776 0.0210145 7.69107 0.0210145 7.69107 4.31218C7.69107 4.84594 7.59812 5.32506 7.40795 5.74536 7.21779 6.16567 6.95578 6.52291 6.61347 6.81709 6.27541 7.1113 5.86972 7.33406 5.40065 7.48958 4.93159 7.64506 4.41604 7.72073 3.86244 7.72073 3.30885 7.72073 2.79752 7.64506 2.33268 7.48958 1.86783 7.33406 1.46638 7.1113 1.12408 6.81709 0.786012 6.52291 0.515554 6.16567 0.325392 5.74536 0.131002 5.32506 0.0338069 4.84594 0.0338069 4.31218L0.0338069 0.0210145 0.0380328 0.0210145Z"
      fill="#3F4D66"
      fill-rule="evenodd"
      fill-opacity="1"
      transform="matrix(1 0 0 1.00925 28.2267 3.90244)"
    />
    <path
      d="M1.23461 6.21377C1.5717 6.60237 2.08155 6.79671 2.75996 6.79671 3.42572 6.79671 3.93136 6.60237 4.27688 6.21377 4.62241 5.82513 4.79517 5.25515 4.79517 4.51244L4.79517 0.0043181 6.57333 0.0043181 6.57333 4.98742C6.57333 5.53583 6.48065 6.02806 6.29103 6.45989 6.10141 6.89171 5.84014 7.25874 5.49886 7.561 5.16177 7.86325 4.75724 8.09212 4.28953 8.25189 3.8218 8.41166 3.30774 8.48938 2.75574 8.48938 2.20375 8.48938 1.6939 8.41166 1.23039 8.25189 0.766888 8.09212 0.36659 7.86325 0.025282 7.561L1.23461 6.21377Z"
      fill="#3F4D66"
      fill-rule="evenodd"
      fill-opacity="1"
      transform="matrix(1 0 0 1.00925 29.3867 7.02439)"
    />
    <path
      d="M3.04845 3.54725C3.05255 3.56406 3.06076 3.57667 3.06486 3.59348 3.34386 4.39625 3.60644 5.18636 3.87312 5.85885 3.84031 5.84625 4.48035 3.89188 4.63215 3.42116 4.78396 2.95043 5.30093 1.41638 5.40761 1.11797 5.51839 0.806958 5.56761 0.361449 6.3841 0.361449 7.20468 0.361449 7.29903 0.861594 7.38112 1.11797 7.4919 1.50043 7.61907 1.92072 7.75038 2.34522 7.88166 2.76971 8.01707 3.19 8.15244 3.60609 8.29195 4.02218 8.42322 4.42567 8.55044 4.81651 8.67761 5.20739 8.79659 5.55625 8.90737 5.85885 9.03048 5.51839 9.16995 5.12755 9.3259 4.69464 9.4818 4.26172 9.6418 3.80362 9.80591 3.32449 9.81 3.31188 9.8141 3.29507 9.81824 3.28246 9.81824 3.26985 9.82234 3.26145 9.82644 3.24464 9.99054 2.76551 10.1464 2.28638 10.2982 1.80304 10.4501 1.31971 10.6798 0.462318 10.7988 0.0252174L12.7272 0.0252174C12.7272 0.0252174 12.7025 0.10087 12.6615 0.226957 12.5549 0.571594 12.2512 1.55087 12.1487 1.80725 12.0174 2.13087 10.327 6.60276 9.83054 7.72494L8.03346 7.72494C7.95141 7.519 7.84473 7.22057 7.71346 6.8213 7.58215 6.42625 7.43854 5.99333 7.27854 5.52261 7.12263 5.05188 6.96263 4.57276 6.80669 4.081 6.65078 3.58928 6.50308 3.13536 6.3718 2.72348 6.24049 3.13536 4.84141 7.51479 4.76346 7.72073L2.88434 7.72073C2.71612 7.44755 2.04735 5.78318 1.40319 4.07682 1.38678 4.039 1.37447 4.00536 1.35806 3.96333 0.676976 2.16449 0.0205145 0.298406 0.036926 0.0336232 0.0574405 0.0252174 1.92836 0.0252174 1.96118 0.0294203 1.97759 0.0378261 2.07606 0.353043 2.20736 0.798552 2.44943 1.61811 2.8351 2.94623 3.03204 3.52623 3.03204 3.53043 3.03614 3.53043 3.03614 3.53464 3.04845 3.53884 3.04845 3.54304 3.04845 3.54725Z"
      fill="#3E4D66"
      fill-rule="evenodd"
      fill-opacity="1"
      transform="matrix(1 0 0 1.00925 14.3067 3.90244)"
    />
    <path
      d="M1.9469 0.703482 1.61925 0.0149677 1.22037 0.0149677 1.22037 1.15626 1.4578 1.15626 1.4578 0.258194 1.47205 0.258194 1.83294 1.01032 2.06086 1.01032C2.17958 0.759614 2.30304 0.508904 2.42176 0.258194L2.43125 0.258194 2.43125 1.15626 2.67818 1.15626 2.67818 0.0149677 2.28405 0.0149677 1.9564 0.703482 1.9469 0.703482ZM0.394129 1.15626 0.655299 1.15626 0.655299 0.187097 1.02094 0.187097 1.02094 0.0149677 0.0237427 0.0149677 0.0237427 0.187097 0.394129 0.187097 0.394129 1.15626Z"
      fill="#60B8F3"
      fill-rule="evenodd"
      fill-opacity="1"
      transform="matrix(1 0 0 1.00925 54.52 0)"
    />
    <path
      d="M10.3517 9.55136C11.5181 11.5766 10.1692 11.6 10.1692 11.6 10.2086 11.5297 10.1692 11.6 10.1692 11.6L7.78283 11.6C7.72916 11.6 7.71485 11.5344 7.76137 11.5016 8.2515 11.1687 8.48409 10.5733 8.80606 9.97325 8.89909 9.7998 8.98497 9.63573 9.06726 9.49978 9.53953 8.70282 9.81503 8.89503 9.94023 8.96533 10.0619 9.03566 10.2265 9.331 10.3517 9.55136"
      fill="#4C5B93"
      fill-rule="evenodd"
      fill-opacity="1"
      transform="matrix(1 0 0 1.00925 0.773333 0)"
    />
    <path
      d="M5.28774 7.84098C5.83047 8.77818 6.4868 10.404 7.02531 10.4366 7.47129 10.461 7.51757 10.3673 7.94248 9.78054 8.05608 9.62162 8.39264 9.15712 8.50203 9.02673 8.83862 8.60705 9.22989 8.36662 9.62116 8.26067 9.66323 8.24845 9.68005 8.20364 9.6548 8.17104 8.73345 6.96901 7.7742 5.58772 6.72239 4.27568 6.28066 3.72969 5.50652 3.72154 4.94276 4.30422L3.87834 5.61216C3.85732 5.63663 3.86573 5.67329 3.89516 5.69367 4.29486 5.93406 4.62724 6.69602 5.28774 7.84098"
      fill="#657EB4"
      fill-rule="evenodd"
      fill-opacity="1"
      transform="matrix(1 0 0 1.00925 0.773333 0)"
    />
    <path
      d="M4.56742 1.68298C4.20268 1.08136 3.78285 0.318509 3.42662 0.0432541 3.33332-0.0314576 3.12552 0.00393221 2.98557 0.153356L0.229006 3.15756C0.224765 3.16149 0.224765 3.16542 0.220525 3.16936-0.267174 3.87715 0.262933 4.61641 1.07294 4.61641L6.44187 4.61641C6.53092 4.61641 6.56487 4.51418 6.49701 4.46306 5.93719 4.08556 5.28411 2.87051 4.56742 1.68298"
      fill="#60B8F3"
      fill-rule="evenodd"
      fill-opacity="1"
      transform="matrix(1 0 0 1.00925 0.773333 7.02439)"
    />
  </g>
</svg>
