<svg viewBox="0 0 13 16" xmlns="http://www.w3.org/2000/svg">
  <defs>
    <clipPath id="clip0"><rect x="0" y="0" width="58" height="16" /></clipPath>
  </defs>
  <g clip-path="url(#clip0)">
    <path
      d="M10.3517 9.55136C11.5181 11.5766 10.1692 11.6 10.1692 11.6 10.2086 11.5297 10.1692 11.6 10.1692 11.6L7.78283 11.6C7.72916 11.6 7.71485 11.5344 7.76137 11.5016 8.2515 11.1687 8.48409 10.5733 8.80606 9.97325 8.89909 9.7998 8.98497 9.63573 9.06726 9.49978 9.53953 8.70282 9.81503 8.89503 9.94023 8.96533 10.0619 9.03566 10.2265 9.331 10.3517 9.55136"
      fill="#4C5B93"
      fill-rule="evenodd"
      fill-opacity="1"
      transform="matrix(1 0 0 1.00925 0.773333 0)"
    />
    <path
      d="M5.28774 7.84098C5.83047 8.77818 6.4868 10.404 7.02531 10.4366 7.47129 10.461 7.51757 10.3673 7.94248 9.78054 8.05608 9.62162 8.39264 9.15712 8.50203 9.02673 8.83862 8.60705 9.22989 8.36662 9.62116 8.26067 9.66323 8.24845 9.68005 8.20364 9.6548 8.17104 8.73345 6.96901 7.7742 5.58772 6.72239 4.27568 6.28066 3.72969 5.50652 3.72154 4.94276 4.30422L3.87834 5.61216C3.85732 5.63663 3.86573 5.67329 3.89516 5.69367 4.29486 5.93406 4.62724 6.69602 5.28774 7.84098"
      fill="#657EB4"
      fill-rule="evenodd"
      fill-opacity="1"
      transform="matrix(1 0 0 1.00925 0.773333 0)"
    />
    <path
      d="M4.56742 1.68298C4.20268 1.08136 3.78285 0.318509 3.42662 0.0432541 3.33332-0.0314576 3.12552 0.00393221 2.98557 0.153356L0.229006 3.15756C0.224765 3.16149 0.224765 3.16542 0.220525 3.16936-0.267174 3.87715 0.262933 4.61641 1.07294 4.61641L6.44187 4.61641C6.53092 4.61641 6.56487 4.51418 6.49701 4.46306 5.93719 4.08556 5.28411 2.87051 4.56742 1.68298"
      fill="#60B8F3"
      fill-rule="evenodd"
      fill-opacity="1"
      transform="matrix(1 0 0 1.00925 0.773333 7.02439)"
    />
  </g>
</svg>
